<?xml version="1.0" encoding="utf-8"?>
<!-- Generator: Adobe Illustrator 19.1.0, SVG Export Plug-In . SVG Version: 6.00 Build 0)  -->
<svg version="1.1" id="Layer_1" xmlns="http://www.w3.org/2000/svg" xmlns:xlink="http://www.w3.org/1999/xlink" x="0px" y="0px"
	 viewBox="0 0 714 65" style="enable-background:new 0 0 714 65;" xml:space="preserve">
<style type="text/css">
	.st0{fill:url(#SVGID_1_);}
	.st1{opacity:0.25;}
	.st2{fill:#231F20;}
	.st3{fill:url(#SVGID_2_);}
	.st4{fill:#F1F1F1;}
	.st5{fill:#A5A5A4;}
	.st6{fill:#F2F2F2;}
	.st7{fill:#E3E3E2;}
	.st8{fill:#7C7C7D;}
	.st9{fill:#ADD07D;}
	.st10{fill:#5C9A45;}
	.st11{fill:#FFFFFF;}
	.st12{fill:none;stroke:#535353;stroke-miterlimit:10;}
	.st13{fill:#585858;}
	.st14{fill:#474747;}
	.st15{fill:#D5D3D4;}
	.st16{fill:#ACACAC;}
</style>
<g>
	<g id="toolbar_x2B_tab2_1_">
		<linearGradient id="SVGID_1_" gradientUnits="userSpaceOnUse" x1="357" y1="3.8357" x2="357" y2="61.7201">
			<stop  offset="0" style="stop-color:#FFFFFF"/>
			<stop  offset="1" style="stop-color:#E3E3E2"/>
		</linearGradient>
		<path class="st0" d="M172.3,27c-1.4,0-2-1.2-6.4-12.4c-3.6-9.2-4.4-11.6-6-11.6C159,3,21.9,3,21,3c-1.6,0-2.4,2.4-6,11.6
			C10.5,25.8,9.9,27,8.5,27H2.9v35h708.2V27H172.3z"/>
		<g class="st1">
			<path class="st2" d="M159.9,3c1.6,0,2.4,2.4,6,11.6c4.4,11.3,5,12.4,6.4,12.4h538.8v35H2.9V27h5.6c1.4,0,2-1.2,6.4-12.4
				C18.5,5.4,19.3,3,21,3C21.9,3,159,3,159.9,3 M159.9,2H21c-2.2,0-2.9,1.9-6.1,10.1L14,14.2C10.6,22.9,9.3,26,8.5,26H2.9h-1v1v35v1
				h1h708.2h1v-1V27v-1h-1H172.3c-0.8,0-2.1-3.1-5.5-11.8l-0.8-2.1C162.8,3.9,162,2,159.9,2L159.9,2z"/>
		</g>
	</g>
	<g id="address_x5F_box_1_">
		<g>
			<linearGradient id="SVGID_2_" gradientUnits="userSpaceOnUse" x1="388.4997" y1="31.0195" x2="388.4997" y2="57.9805">
				<stop  offset="0" style="stop-color:#FFFFFF"/>
				<stop  offset="1" style="stop-color:#FDFDFD"/>
			</linearGradient>
			<path class="st3" d="M99.9,58c-1.6,0-2.9-1.3-2.9-2.9V34c0-1.6,1.3-2.9,2.9-2.9h577.3c1.6,0,2.9,1.3,2.9,2.9V55
				c0,1.6-1.3,2.9-2.9,2.9H99.9z"/>
			<path class="st4" d="M677.1,32c1.1,0,2,0.9,2,2V55c0,1.1-0.9,2-2,2H99.9c-1.1,0-2-0.9-2-2V34c0-1.1,0.9-2,2-2H677.1 M677.1,30
				H99.9c-2.2,0-3.9,1.8-3.9,3.9V55c0,2.2,1.8,3.9,3.9,3.9h577.3c2.2,0,3.9-1.8,3.9-3.9V34C681.1,31.8,679.3,30,677.1,30L677.1,30z"
				/>
			<path class="st5" d="M677.1,32c1.1,0,2,0.9,2,2V55c0,1.1-0.9,2-2,2H99.9c-1.1,0-2-0.9-2-2V34c0-1.1,0.9-2,2-2H677.1 M677.1,31
				H99.9c-1.6,0-2.9,1.3-2.9,2.9V55c0,1.6,1.3,2.9,2.9,2.9h577.3c1.6,0,2.9-1.3,2.9-2.9V34C680.1,32.3,678.8,31,677.1,31L677.1,31z"
				/>
			<path class="st6" d="M677.1,33c0.5,0,1,0.4,1,1V55c0,0.5-0.4,1-1,1H99.9c-0.5,0-1-0.4-1-1V34c0-0.5,0.4-1,1-1H677.1 M677.1,32
				H99.9c-1.1,0-2,0.9-2,2V55c0,1.1,0.9,2,2,2h577.3c1.1,0,2-0.9,2-2V34C679.1,32.9,678.2,32,677.1,32L677.1,32z"/>
		</g>
		<g id="https_x5F_secure_x5F_icon_1_">
			<g>
				<path class="st7" d="M110.4,48.5c-2.5,0-4-1.9-4-5v-2c0-2.8,1.2-4,4-4s4,1.2,4,4v2C114.4,46.6,112.9,48.5,110.4,48.5z
					 M108.9,39.5c-0.3,0-0.5,0.2-0.5,0.5v6c0,0.3,0.2,0.5,0.5,0.5h3c0.3,0,0.5-0.2,0.5-0.5v-6c0-0.3-0.2-0.5-0.5-0.5H108.9z"/>
				<path class="st8" d="M110.4,38c2.5,0,3.5,1,3.5,3.5v2c0,2.5-1,4.5-3.5,4.5s-3.5-2-3.5-4.5v-2C106.9,39,107.9,38,110.4,38
					 M108.9,47h3c0.5,0,1-0.5,1-1v-6c0-0.5-0.5-1-1-1h-3c-0.5,0-1,0.5-1,1v6C107.9,46.5,108.3,47,108.9,47 M110.4,37
					c-3,0-4.5,1.5-4.5,4.5v2c0,3.4,1.7,5.5,4.5,5.5s4.5-2.1,4.5-5.5v-2C114.9,38.5,113.4,37,110.4,37L110.4,37z M108.9,46l0-6h3v6
					H108.9L108.9,46z"/>
			</g>
			<g>
				<rect x="105.4" y="43.5" class="st9" width="10" height="8"/>
				<path class="st10" d="M114.9,44v7h-9v-7H114.9 M115.9,43h-1h-9h-1v1v7v1h1h9h1v-1v-7V43L115.9,43z"/>
				<g class="st1">
					<path class="st11" d="M113.9,45v5h-7v-5H113.9 M114.9,44h-9v7h9V44L114.9,44z"/>
				</g>
			</g>
		</g>
	</g>
	<g id="tab2_x5F_contents_1_">
		<g id="close_x5F_tab2_1_">
			<line class="st12" x1="149.9" y1="18" x2="155.9" y2="12"/>
			<line class="st12" x1="149.9" y1="12" x2="155.9" y2="18"/>
		</g>
	</g>
	<g id="refresh_x5F_button_1_">
		<path class="st13" d="M85.9,44v-8l-2.5,2.9c-1.3-1.2-3.1-1.9-5-1.9c-4.1,0-7.5,3.4-7.5,7.5s3.4,7.5,7.5,7.5c1.9,0,3.7-0.7,5-1.9
			c-1.8-2.4,0,0-1.8-2.4c-0.8,0.8-1.9,1.3-3.2,1.3c-2.5,0-4.5-2-4.5-4.5s2-4.5,4.5-4.5c1.2,0,2.2,0.4,3,1.2L78.9,44H85.9z"/>
		<g>
			<g>
				<g>
					<path class="st14" d="M83.4,38.9c-1.3-1.2-3.1-1.9-5-1.9c-4.1,0-7.5,3.4-7.5,7.5c0,0.2,0,0.3,0,0.5c0.3-3.9,3.5-7,7.5-7
						c1.9,0,3.6,0.7,5,1.9l2.5-2.9v-1L83.4,38.9z"/>
				</g>
				<g>
					<path class="st14" d="M78.4,49c-2.3,0-4.2-1.8-4.4-4c0,0.2-0.1,0.3-0.1,0.5c0,2.5,2,4.5,4.5,4.5c1.3,0,2.4-0.5,3.2-1.3
						c1.6,2.2,0.4,0.5,1.3,1.8c0.2-0.1,0.3-0.2,0.5-0.4c-1.8-2.4,0,0-1.8-2.4C80.8,48.5,79.6,49,78.4,49z"/>
				</g>
				<g>
					<path class="st14" d="M80.8,41.8l-2,2.2h0.9l1.6-1.8C81.2,42,81,41.9,80.8,41.8z"/>
				</g>
			</g>
		</g>
	</g>
	<g id="forward_x5F_button_1_">
		<polygon class="st15" points="41.9,42.3 50.9,42.3 47.9,39.3 50,37.2 56.9,44.1 50,51 47.9,48.9 51.5,45.3 41.9,45.3 		"/>
		<g>
			<g>
				<g>
					<polygon class="st16" points="49.6,42.2 50.9,43.5 41.9,43.5 41.9,42.2 					"/>
				</g>
				<g>
					<polygon class="st16" points="50,38.4 48.5,39.8 47.9,39.2 50,37.1 56.9,44 56.2,44.6 					"/>
				</g>
				<g>
					<polygon class="st16" points="51.5,46.5 48.5,49.5 47.9,48.8 50.2,46.5 					"/>
				</g>
			</g>
		</g>
	</g>
	<g id="back_x5F_button_1_">
		<polygon class="st15" points="27.9,42.3 18.9,42.3 21.9,39.3 19.8,37.2 12.9,44.1 19.8,51 21.9,48.9 18.3,45.3 27.9,45.3 		"/>
		<g>
			<g>
				<g>
					<polygon class="st16" points="20.2,42.2 18.9,43.5 27.9,43.5 27.9,42.2 					"/>
				</g>
				<g>
					<polygon class="st16" points="19.8,38.4 21.2,39.8 21.9,39.2 19.8,37.1 12.9,44 13.5,44.6 					"/>
				</g>
				<g>
					<polygon class="st16" points="18.3,46.5 21.2,49.5 21.9,48.8 19.6,46.5 					"/>
				</g>
			</g>
		</g>
	</g>
</g>
</svg>
