<svg id="Layer_1" data-name="Layer 1" xmlns="http://www.w3.org/2000/svg" xmlns:xlink="http://www.w3.org/1999/xlink" viewBox="0 0 902 61"><defs><style>.cls-1{fill:url(#linear-gradient);}.cls-2{opacity:0.25;}.cls-3{fill:#231f20;}.cls-4{fill:url(#linear-gradient-2);}.cls-5{fill:#f1f1f1;}.cls-6{fill:#a5a5a4;}.cls-7{fill:#f2f2f2;}.cls-8{fill:#e3e3e2;}.cls-9{fill:#7c7c7d;}.cls-10{fill:#add07d;}.cls-11{fill:#5c9a45;}.cls-12{fill:#fff;}.cls-13{fill:none;stroke:#535353;stroke-miterlimit:10;}.cls-14{fill:#585858;}.cls-15{fill:#474747;}.cls-16{fill:#d5d3d4;}.cls-17{fill:#acacac;}</style><linearGradient id="linear-gradient" x1="451" y1="1.84" x2="451" y2="59.72" gradientUnits="userSpaceOnUse"><stop offset="0" stop-color="#fff"/><stop offset="1" stop-color="#e3e3e2"/></linearGradient><linearGradient id="linear-gradient-2" x1="482.75" y1="29.02" x2="482.75" y2="55.98" gradientUnits="userSpaceOnUse"><stop offset="0" stop-color="#fff"/><stop offset="1" stop-color="#fdfdfd"/></linearGradient></defs><title>browser_long</title><g id="toolbar_tab2" data-name="toolbar+tab2"><path class="cls-1" d="M170.61,25c-1.42,0-2-1.17-6.44-12.44-3.6-9.15-4.4-11.56-6-11.56H19.09c-1.63,0-2.43,2.41-6,11.56C8.62,23.83,8,25,6.62,25H1V60l900-.68V22.87Z"/><g class="cls-2"><path class="cls-3" d="M158.14,1c1.63,0,2.43,2.41,6,11.56,4.44,11.27,5,12.44,6.44,12.44L901,22.87V59.32L1,60V25H6.62c1.42,0,2-1.17,6.44-12.44C16.66,3.41,17.46,1,19.09,1H158.14m0-1H19.09C16.92,0,16.16,1.93,13,10.08L12.13,12.2C8.69,20.94,7.41,24,6.62,24H0V61H1l900-.68h1V21.87h-1L170.61,24c-0.79,0-2.06-3.06-5.51-11.8l-0.83-2.12C161.08,1.93,160.32,0,158.14,0h0Z"/></g></g><g id="address_box"><path class="cls-4" d="M98.46,56A3,3,0,0,1,95.52,53V32A2.94,2.94,0,0,1,98.46,29H870V56H98.46Z"/><path class="cls-5" d="M869,30V55H98.46a2,2,0,0,1-2-2V32a2,2,0,0,1,2-2H869m2-2H98.46A3.93,3.93,0,0,0,94.54,32V53A3.93,3.93,0,0,0,98.46,57H871V28h0Z"/><path class="cls-6" d="M869,30V55H98.46a2,2,0,0,1-2-2V32a2,2,0,0,1,2-2H869m1-1H98.46A3,3,0,0,0,95.52,32V53A3,3,0,0,0,98.46,56H870V29h0Z"/><path class="cls-7" d="M868,31V54H98.46a1,1,0,0,1-1-1V32a1,1,0,0,1,1-1H868m1-1H98.46a2,2,0,0,0-2,2V53a2,2,0,0,0,2,2H869V30h0Z"/><g id="https_secure_icon"><path class="cls-8" d="M109,46.5a4.2,4.2,0,0,1-4-4.25V39.5a4,4,0,0,1,3.88-4h0.1c2.75,0,4,1.23,4,4v2c0,3-1.39,4.87-3.72,5H109Zm-1.54-9a0.5,0.5,0,0,0-.49.5v6a0.5,0.5,0,0,0,.49.5h3a0.5,0.5,0,0,0,.49-0.5V38a0.5,0.5,0,0,0-.49-0.5h-3Z"/><path class="cls-9" d="M108.93,36c2.46,0,3.48,1,3.48,3.5v2c0,2.4-1,4.37-3.25,4.49H109a3.68,3.68,0,0,1-3.53-3.75V39.5a3.47,3.47,0,0,1,3.38-3.5h0.1m-1.49,9h3a1,1,0,0,0,1-1V38a1,1,0,0,0-1-1h-3a1,1,0,0,0-1,1v6a1,1,0,0,0,1,1m1.49-10h-0.11a4.48,4.48,0,0,0-4.37,4.5v2.74A4.65,4.65,0,0,0,109,47h0.24c2.59-.14,4.19-2.25,4.19-5.49v-2c0-3-1.47-4.5-4.48-4.5h0Zm-1.48,9V38h3v6h-3Z"/><rect class="cls-10" x="103.96" y="41.5" width="9.95" height="8"/><path class="cls-11" d="M113.41,42v7h-8.95V42h8.95m1-1H103.46v9h10.95V41h0Z"/><g class="cls-2"><path class="cls-12" d="M112.41,43v5h-6.95V43h6.95m1-1h-8.95v7h8.95V42h0Z"/></g></g></g><g id="tab2_contents"><g id="close_tab2"><line class="cls-13" x1="148.49" y1="16" x2="154.49" y2="10"/><line class="cls-13" x1="148.49" y1="10" x2="154.49" y2="16"/></g></g><g id="refresh_button"><path class="cls-14" d="M84.5,42V34L82,36.89a7.5,7.5,0,1,0,0,11.18l-1.8-2.42a4.51,4.51,0,1,1-.22-6.5L77.5,42h7Z"/><path class="cls-15" d="M82,36.89A7.49,7.49,0,0,0,69.5,42.5c0,0.17,0,.33,0,0.5A7.48,7.48,0,0,1,82,37.89L84.5,35V34Z"/><path class="cls-15" d="M77,47a4.48,4.48,0,0,1-4.45-4,4.43,4.43,0,0,0-.05.5,4.5,4.5,0,0,0,7.7,3.16l1.34,1.8c0.16-.12.31-0.25,0.46-0.38l-1.8-2.42A4.48,4.48,0,0,1,77,47Z"/><path class="cls-15" d="M79.46,39.76L77.5,42h0.88L80,40.16A4.72,4.72,0,0,0,79.46,39.76Z"/></g><g id="forward_button"><polygon class="cls-16" points="40.5 40.29 49.5 40.29 46.5 37.29 48.6 35.19 55.5 42.1 48.6 49 46.5 46.9 50.12 43.29 40.5 43.29 40.5 40.29"/><polygon class="cls-17" points="48.21 40.19 49.5 41.48 40.5 41.48 40.5 40.19 48.21 40.19"/><polygon class="cls-17" points="48.6 36.38 47.14 37.84 46.5 37.19 48.6 35.1 55.5 42 54.86 42.64 48.6 36.38"/><polygon class="cls-17" points="50.12 44.48 47.14 47.45 46.5 46.81 48.83 44.48 50.12 44.48"/></g><g id="back_button"><polygon class="cls-16" points="26.5 40.29 17.5 40.29 20.5 37.29 18.4 35.19 11.5 42.1 18.4 49 20.5 46.9 16.89 43.29 26.5 43.29 26.5 40.29"/><polygon class="cls-17" points="18.79 40.19 17.5 41.48 26.5 41.48 26.5 40.19 18.79 40.19"/><polygon class="cls-17" points="18.4 36.38 19.86 37.84 20.5 37.19 18.4 35.1 11.5 42 12.14 42.64 18.4 36.38"/><polygon class="cls-17" points="16.89 44.48 19.86 47.45 20.5 46.81 18.17 44.48 16.89 44.48"/></g></svg>
