<?xml version="1.0" encoding="utf-8"?>
<!-- Generator: Adobe Illustrator 19.1.0, SVG Export Plug-In . SVG Version: 6.00 Build 0)  -->
<svg version="1.1" id="Layer_1" xmlns="http://www.w3.org/2000/svg" xmlns:xlink="http://www.w3.org/1999/xlink" x="0px" y="0px"
	 viewBox="0 0 328.9 198" style="enable-background:new 0 0 328.9 198;" xml:space="preserve">
<style type="text/css">
	.st0{fill:#EC5F52;}
	.st1{opacity:0.2;fill:#FFFFFF;}
</style>
<rect x="0" class="st0" width="328.9" height="198"/>
<path class="st1" d="M316.4,44c1.7-5.5-1.5-11.4-7-13c-4.9-1.5-10,0.8-12.3,5.2L222,17.9c0-4.5-3-8.6-7.5-9.9
	c-5.5-1.7-11.4,1.5-13,7c-0.4,1.5-0.5,3-0.3,4.4l-58.3,23.7c-1.3-1.8-3.2-3.2-5.4-3.8c-5.5-1.7-11.4,1.5-13,7
	c-1.2,3.9,0.1,7.9,2.8,10.6l-31.4,55.4c-5.4-1.4-11,1.8-12.6,7.1c-1.7,5.5,1.5,11.4,7,13c0.2,0.1,0.5,0.1,0.7,0.2l2.6,65.4h5.1
	l-2.6-65.5c2.8-0.8,5.3-2.8,6.6-5.6l40.6,8.8c0.1,2.4,1,4.6,2.5,6.4L105.6,198h6.3l38-52.9c0.3,0.1,0.6,0.2,0.9,0.3
	c0.9,0.3,1.9,0.4,2.8,0.4l10.3,44.5c-2.4,1.3-4.4,3.5-5.2,6.3c-0.1,0.5-0.2,0.9-0.3,1.4H179c-0.2-1-0.5-2-0.9-3l37.3-31.5
	c0.9,0.7,2,1.2,3.1,1.5c1,0.3,1.9,0.4,2.9,0.4l7.8,32.5h5.3l-8.1-33.7c1.7-0.9,3.1-2.2,4.1-3.9l61.6,18.6c0,1.4,0.2,2.7,0.7,3.9
	L272.6,198h8.6l14.5-10.9c1.1,0.9,2.4,1.7,3.8,2.1c1,0.3,2.1,0.5,3.1,0.4l2.2,8.3h5.3l-2.6-9.6c2.3-1.3,4.1-3.4,5-6.2
	c0.1-0.3,0.1-0.5,0.2-0.8l16.1-0.6v-5.1l-16.3,0.6c-0.6-1.9-1.6-3.6-3.1-4.9l19.4-37.7V94.6l-16.5-45
	C314.2,48.3,315.7,46.4,316.4,44z M220.8,22.8l75.2,18.2c0,2.8,1.2,5.5,3.2,7.4L275.8,89c-2.4-0.7-4.8-0.5-6.9,0.4l-49.2-65
	C220.1,24,220.4,23.4,220.8,22.8z M212.6,28.4c1-0.1,2-0.4,3-0.8l49.2,65c-0.6,0.7-1,1.5-1.4,2.3l-52.7-9.1
	c-0.2-3.4-2.1-6.6-5.1-8.4L212.6,28.4z M144.8,47.9l58.3-23.7c1.1,1.5,2.6,2.7,4.4,3.5l-6.9,48.3c-2.9-0.1-5.8,1-7.8,3L144.5,52
	C144.9,50.6,145,49.2,144.8,47.9z M144.4,130.7l-40.7-8.9c-0.1-2.7-1.4-5.3-3.4-7.2l31.3-55.3c0.8,0.2,1.7,0.3,2.5,0.4l14.9,66.3
	C147.1,127.1,145.4,128.7,144.4,130.7z M154.1,125l-14.9-66.3c1.1-0.5,2.1-1.3,2.9-2.2l48.1,26.8c0,0,0,0,0,0
	c-1,3.4-0.2,6.9,1.9,9.5l-32.9,33.5c-0.7-0.4-1.5-0.8-2.3-1C155.9,125.1,155,125,154.1,125z M174.8,191.1c-0.9-0.7-2-1.2-3.1-1.5
	c-0.9-0.3-1.9-0.4-2.8-0.4l-10.3-44.5c1.7-0.9,3.2-2.3,4.2-4l48.2,14c-0.1,1.7,0.3,3.4,1.1,5L174.8,191.1z M212.4,149.7l-48.2-14
	c0.1-2.1-0.5-4.1-1.5-5.8l33.4-34c0.3,0.1,0.7,0.3,1.1,0.4c1.6,0.5,3.1,0.5,4.6,0.3l14.4,49.3C214.7,146.9,213.4,148.2,212.4,149.7z
	 M226.5,145.8c-0.6-0.3-1.3-0.6-2-0.8c-1.1-0.3-2.3-0.5-3.4-0.4l-14.5-49.9c1.3-1,2.4-2.3,3.1-3.9l52.8,9.1c0.1,1.8,0.7,3.5,1.7,4.9
	L226.5,145.8z M293.4,174.1l-61.5-18.5c0.1-2.2-0.5-4.4-1.7-6.2l37.7-41c0.6,0.3,1.3,0.6,2,0.8c1.4,0.4,2.8,0.5,4.1,0.4l22.6,61.1
	C295.3,171.5,294.2,172.6,293.4,174.1z M304.9,169c-1.2-0.3-2.3-0.3-3.5-0.2l-22.6-61.1c1.2-0.9,2.3-2,3.1-3.3l42.1,12.4
	c-0.1,3.2,1.2,6.2,3.5,8.3L304.9,169z M328.5,108.6c-1.2,0.9-2.3,2-3.1,3.3l-42.1-12.4c0.1-3-1.1-5.9-3.2-7.9L303.6,51
	c1.3,0.4,2.7,0.5,3.9,0.3L328.5,108.6z"/>
</svg>
