<?xml version="1.0" encoding="utf-8"?>
<!-- Generator: Adobe Illustrator 19.1.0, SVG Export Plug-In . SVG Version: 6.00 Build 0)  -->
<svg version="1.1" id="Layer_1" xmlns="http://www.w3.org/2000/svg" xmlns:xlink="http://www.w3.org/1999/xlink" x="0px" y="0px"
	 viewBox="0 0 328.9 198" style="enable-background:new 0 0 328.9 198;" xml:space="preserve">
<style type="text/css">
	.st0{fill:#5991CD;}
	.st1{opacity:0.2;fill:#FFFFFF;}
</style>
<rect x="0" class="st0" width="328.9" height="198"/>
<path class="st1" d="M0,29.8l3.8-3.6c2.5,1.6,5.6,2.2,8.5,1.3l20,36.5c-1.7,1.6-2.9,3.8-3.2,6L0,72.7v5.1l29.5-2.7
	c0.1,0.3,0.2,0.6,0.3,0.8c0.4,0.9,0.9,1.7,1.5,2.4L4.6,115.3c-1.4-0.6-3-0.8-4.6-0.7v20.9c0.6,0,1.1,0,1.7,0l18.6,51.4
	c-0.7,0.5-1.3,1-1.8,1.5L0,178.2v5.8l16,8.8c-0.4,1.7-0.4,3.4,0,5.1h33.7l-13.1-2.9c0-1.3-0.3-2.7-0.9-4c-0.4-0.9-0.9-1.7-1.6-2.4
	l31-43.3c1.8,0.7,3.7,0.9,5.6,0.6l23.4,52h5.6l-24.3-54.1c1.8-1.4,3-3.3,3.6-5.4l55.6,1.6c0.2,0.7,0.4,1.4,0.7,2
	c0.6,1.3,1.4,2.4,2.4,3.4L109,198h5.8l27.4-50c1.5,0.4,3,0.4,4.5,0.2L165,188c-2.5,2-3.9,5-3.9,8.1l-7.8,1.9h28.6
	c0.4-2,0.1-4.1-0.8-6.1c-0.6-1.3-1.4-2.4-2.4-3.3l29.4-53.4c2.2,0.6,4.7,0.4,7-0.6c5.3-2.4,7.6-8.6,5.2-13.9
	c-2.1-4.6-7.2-7-11.9-5.9l-35.5-68.7c3.4-3,4.5-7.9,2.6-12.2c-2.4-5.3-8.6-7.6-13.9-5.2c-1.4,0.6-2.6,1.6-3.6,2.7L101.9,2.9
	c0.2-1,0.3-1.9,0.2-2.9H81.3c0,0,0,0.1,0,0.1L18.8,12.8c-2.5-5-8.5-7.1-13.6-4.8C2.8,9,1,10.9,0,13.1v8.7c0.1,0.2,0.2,0.4,0.3,0.6
	L0,22.8V29.8z M30,185.7c-1.5-0.6-3.2-0.8-4.9-0.7L6.5,133.7c1.7-1.2,3-2.8,3.8-4.6l48.2,7.5c0.1,1.1,0.4,2.3,0.9,3.3
	c0.4,0.9,0.9,1.7,1.6,2.4L30,185.7z M59.4,131.6l-48.2-7.5c-0.1-1.1-0.4-2.3-0.9-3.3c-0.4-0.9-0.9-1.7-1.5-2.4l26.8-36.9
	c1.8,0.7,3.8,0.9,5.8,0.6l21.1,45.6C61,128.6,60,130,59.4,131.6z M72.3,125.7c-1.7-0.6-3.5-0.7-5.3-0.4L46,79.8
	c1.6-1.3,2.8-3,3.4-4.9l47.5,3c0.1,0.4,0.3,0.7,0.4,1c0.7,1.5,1.6,2.7,2.8,3.7L72.3,125.7z M134.8,135l-55.6-1.6
	c-0.2-0.7-0.4-1.4-0.7-2c-0.5-1.1-1.1-2-1.9-2.8l28.2-43.7c1.6,0.3,3.3,0.3,5-0.2l27.7,45.9C136.2,131.7,135.3,133.3,134.8,135z
	 M174.2,186.1c-1.5-0.4-3-0.4-4.5-0.2L151.5,146c2.3-1.9,3.7-4.7,3.9-7.6l45.9-8.9c0.6,1.2,1.4,2.3,2.3,3.2L174.2,186.1z
	 M166.3,48.7c0.7,0,1.3-0.1,2-0.3l35.5,68.7c-2.1,1.9-3.4,4.5-3.5,7.3l-45.9,8.9c-1.1-2.2-2.8-3.9-4.9-5L166.3,48.7z M158.8,45.9
	c0.8,0.7,1.6,1.3,2.5,1.8l-16.8,79.7c-0.9,0-1.8,0.2-2.6,0.5L114.2,82c2.5-2.4,3.6-5.9,3-9.3L158.8,45.9z M99.6,7.5L155.7,36
	c-0.4,1.8-0.4,3.8,0.3,5.6L115,68c-1.8-2.3-4.5-3.7-7.4-3.9L96.3,10C97.6,9.4,98.7,8.5,99.6,7.5z M91.3,11.1L102.6,65c0,0,0,0,0,0
	c-3.2,1.5-5.4,4.4-6,7.7l-46.9-2.9c-0.2-0.8-0.4-1.6-0.7-2.4c-0.4-0.9-0.9-1.6-1.5-2.3l40.3-54.7C88.9,10.8,90.1,11,91.3,11.1z
	 M20,17.8L82.3,5.1c0.4,0.8,0.8,1.5,1.4,2.1L43.4,62c-2-0.8-4.3-1-6.6-0.4L16.8,25C18.8,23.1,19.9,20.5,20,17.8z"/>
</svg>
