<?xml version="1.0" encoding="utf-8"?>
<!-- Generator: Adobe Illustrator 19.1.0, SVG Export Plug-In . SVG Version: 6.00 Build 0)  -->
<svg version="1.1" id="Layer_1" xmlns="http://www.w3.org/2000/svg" xmlns:xlink="http://www.w3.org/1999/xlink" x="0px" y="0px"
	 viewBox="0 0 328.9 198" style="enable-background:new 0 0 328.9 198;" xml:space="preserve">
<style type="text/css">
	.st0{fill:#4D4D4D;}
	.st1{opacity:0.2;fill:#FFFFFF;}
</style>
<rect x="0" y="0" class="st0" width="328.9" height="198"/>
<path class="st1" d="M39.3,34.8c0.7,5.7,6,9.8,11.7,9.1c1.5-0.2,2.9-0.7,4.1-1.4l38.6,28c-0.6,1.6-0.9,3.4-0.7,5.2
	c0.7,5.7,6,9.8,11.7,9.1c1.4-0.2,2.7-0.6,3.9-1.3l42.3,43.9c-1.2,2-1.8,4.4-1.5,6.8c0.7,5.7,6,9.8,11.7,9.1c5-0.6,8.8-4.8,9.1-9.7
	l76.2-13.6c1.8,4.1,6.2,6.7,10.8,6.1c5.7-0.7,9.8-6,9.1-11.7c-0.2-1.5-0.7-3-1.5-4.2L308.6,65c1.9,1.1,4.2,1.6,6.5,1.3
	c5.7-0.7,9.8-6,9.1-11.7c-0.5-4-3.2-7.2-6.8-8.5L322.1,0h-5.1l-4.6,45.6c-0.9,0.1-1.7,0.4-2.4,0.7L275.7,0h-6.4l36.4,49.3
	c-0.8,0.9-1.4,2-1.8,3.1l-54.9-5.2c0,0,0,0,0,0c-0.4-3.5-2.6-6.4-5.5-8L258.5,0H253l-14.4,38.1c-0.4,0-0.7,0-1.1,0.1
	c-1.6,0.2-3.1,0.8-4.4,1.6L200,0.4c0.1-0.1,0.2-0.3,0.3-0.4h-17.5c0.8,1.2,1.8,2.3,3,3.1l-18,52.7c-0.7-0.1-1.4,0-2.2,0
	c-1.4,0.2-2.7,0.6-3.9,1.3l-45.2-46.8c0.8-1.3,1.4-2.8,1.5-4.5L165.8,0h-42.3l-6.3,0.8c-0.1-0.3-0.2-0.5-0.4-0.8H98.3
	c-0.9,1.8-1.4,3.9-1.1,6.1c0,0.3,0.1,0.5,0.1,0.8L57.2,26.2c-1.6-1.7-3.8-2.8-6.2-3.1L53.2,0H48l-2.2,23.8
	C41.5,25.5,38.6,30,39.3,34.8z M248.5,52.4l55,5.2c0.2,1.4,0.7,2.7,1.4,3.9l-43.8,45.2c-1.6-0.9-3.5-1.5-5.5-1.4l-13.1-47
	C245.3,57.2,247.4,55,248.5,52.4z M237.4,58.9l13.3,47.7c-0.9,0.5-1.7,1.2-2.4,1.9l-71.2-39.7c0.2-0.9,0.3-1.7,0.3-2.7l51.9-12.9
	C231,56.4,234,58.5,237.4,58.9z M190.7,4.7c0.7,0.1,1.4,0,2.2,0c1.2-0.1,2.3-0.5,3.3-1l33.4,39.8c-0.8,1.4-1.2,3.1-1.3,4.8l-52,12.9
	c-0.8-1.6-2.1-2.9-3.5-3.8L190.7,4.7z M168.4,76.5c2.5-0.3,4.6-1.5,6.2-3.2l71.2,39.7c-0.2,0.6-0.3,1.3-0.3,2l-76.2,13.6
	c-1.2-2.6-3.3-4.5-5.9-5.5L168.4,76.5z M163.4,76l-5.1,46.5c-1.4,0.2-2.6,0.6-3.8,1.3l-42.3-43.9c0.8-1.3,1.3-2.7,1.5-4.3l43.5-5.6
	C158.4,72.8,160.6,75,163.4,76z M109.6,15c1.2-0.2,2.3-0.6,3.3-1.2l45.2,46.8c-0.8,1.3-1.3,2.7-1.5,4.3l-43.5,5.6
	c-1.2-2.9-3.6-5.2-6.6-6.1L109.6,15z M60,32.2c-0.1-0.5-0.2-1-0.3-1.5l39.9-19.2c1.3,1.5,3,2.7,4.9,3.3l-3,49.4
	c-1.8,0.3-3.4,1.1-4.8,2.2l-38-27.6C59.8,36.9,60.3,34.6,60,32.2z"/>
</svg>
