<?xml version="1.0" encoding="utf-8"?>
<!-- Generator: Adobe Illustrator 19.1.0, SVG Export Plug-In . SVG Version: 6.00 Build 0)  -->
<svg version="1.1" id="Layer_1" xmlns="http://www.w3.org/2000/svg" xmlns:xlink="http://www.w3.org/1999/xlink" x="0px" y="0px"
	 viewBox="0 0 25 19" style="enable-background:new 0 0 25 19;" xml:space="preserve">
<style type="text/css">
	.st0{fill:#6A9ED2;}
	.st1{fill:#B8D8F1;}
	.st2{fill:#D2EBFB;}
	.st3{fill:#FFFFFF;}
	.st4{fill:#BCBCBB;}
</style>
<g>
	<rect x="4" y="4" class="st0" width="17" height="11"/>
	<polygon class="st1" points="16,12 16,11 15,11 15,10 11,10 11,11 11,12 13,12 13,13 19,13 19,12 	"/>
	<polygon class="st2" points="13,13 13,12 11,12 11,11 10,11 10,10 5,10 5,11 4,11 4,12 4,13 4,15 21,15 21,13 	"/>
	<rect x="17" y="7" class="st3" width="2" height="2"/>
	<path class="st4" d="M21.5,1L1.3,1H1v0.3v16.5V18h0.3h22.5H24v-0.3V3.5L21.5,1z M23,17H2V2h18v3h3V17z M21,4V2l2,2H21z"/>
</g>
</svg>
