<?xml version="1.0" encoding="utf-8"?>
<!-- Generator: Adobe Illustrator 19.1.0, SVG Export Plug-In . SVG Version: 6.00 Build 0)  -->
<svg version="1.1" id="Layer_1" xmlns="http://www.w3.org/2000/svg" xmlns:xlink="http://www.w3.org/1999/xlink" x="0px" y="0px"
	 viewBox="0 0 25 19" style="enable-background:new 0 0 25 19;" xml:space="preserve">
<style type="text/css">
	.st0{fill:#BCBCBB;}
	.st1{fill:#6A9ED2;}
</style>
<g>
	<path class="st0" d="M21.5,1L1.3,1H1v0.3v16.5V18h0.3h22.5H24v-0.3V3.5L21.5,1z M23,17H2V2h18v3h3V17z M21,4V2l2,2H21z"/>
	<g>
		<rect x="8" y="8" class="st1" width="2" height="4"/>
		<rect x="10" y="7" class="st1" width="1" height="6"/>
		<rect x="12" y="8" class="st1" width="1" height="4"/>
		<rect x="17" y="8" class="st1" width="1" height="4"/>
		<rect x="14" y="7" class="st1" width="1" height="2"/>
		<rect x="14" y="11" class="st1" width="1" height="2"/>
		<rect x="15" y="9" class="st1" width="1" height="2"/>
		<rect x="13" y="6" class="st1" width="1" height="1"/>
		<rect x="13" y="13" class="st1" width="1" height="1"/>
		<rect x="16" y="6" class="st1" width="1" height="2"/>
		<rect x="16" y="12" class="st1" width="1" height="2"/>
		<rect x="15" y="5" class="st1" width="1" height="1"/>
		<rect x="15" y="14" class="st1" width="1" height="1"/>
	</g>
</g>
</svg>
