<svg id="Layer_1" data-name="Layer 1" xmlns="http://www.w3.org/2000/svg" viewBox="0 0 90 65"><defs><style>.cls-1{fill:#6a9ed2;}.cls-2{opacity:0.75;}.cls-3{fill:#fff;}</style></defs><title>private</title><path class="cls-1" d="M85.92,5h-42a5,5,0,0,0-5-5H5A5,5,0,0,0,0,5V60.92A4.09,4.09,0,0,0,4.08,65H85.92A4.09,4.09,0,0,0,90,60.92V9.08A4.09,4.09,0,0,0,85.92,5Z"/><g class="cls-2"><path class="cls-3" d="M55.92,31.2H54.39V27.14c0-5-4.43-9.1-9.39-9.37v0H44.49v0a9.42,9.42,0,0,0-8.89,9.37V31.2H34.08a1.27,1.27,0,0,0-1.27,1.27V50a1.27,1.27,0,0,0,1.27,1.27H55.92A1.27,1.27,0,0,0,57.19,50V32.47A1.27,1.27,0,0,0,55.92,31.2ZM46.27,42.59v4.09H43.73V42.59A3,3,0,1,1,46.27,42.59ZM51.86,31.2H38.14V27.14a6.86,6.86,0,0,1,6.73-6.85,7.08,7.08,0,0,1,7,6.85V31.2Z"/></g></svg>