<svg id="Layer_1" data-name="Layer 1" xmlns="http://www.w3.org/2000/svg" viewBox="0 0 90 65"><defs><style>.cls-1{fill:#6a9ed1;}.cls-2{opacity:0.75;}.cls-3{fill:#fff;}</style></defs><title>public</title><path class="cls-1" d="M2378.77,459.1h-42a5,5,0,0,0-5-5h-33.87a5,5,0,0,0-5,5V515a4.09,4.09,0,0,0,4.08,4.08h81.84a4.09,4.09,0,0,0,4.08-4.08V463.18A4.09,4.09,0,0,0,2378.77,459.1Z" transform="translate(-2292.85 -454.1)"/><g class="cls-2"><path class="cls-3" d="M2339.64,482.41c0.51,0.16.43-1.14-.15-1.06a2.88,2.88,0,0,0-.13,1.06A1.18,1.18,0,0,0,2339.64,482.41Z" transform="translate(-2292.85 -454.1)"/><path class="cls-3" d="M2337.38,476.18a8.69,8.69,0,0,0-.14-1.22c-0.06-.38,0-0.66-0.5-0.76a4.42,4.42,0,0,0-1.08.24,1.88,1.88,0,0,0-1.07-.07,8.81,8.81,0,0,0-1.49,1.55,6,6,0,0,0,.89.38c-0.26.5-.11,1-0.39,1.52-0.08.14-.38,0.23-0.42,0.35s0.17,0.35.1,0.61c-0.15.56-.79,0.5-0.61,1.16a2.55,2.55,0,0,0,1,1l-0.19.25c0.59,0.55.9-.82,1.13-1.15a1.93,1.93,0,0,1,1-.56c0.39-.23.41-1,1-0.78,0-.14,0-0.34,0-0.49a3.48,3.48,0,0,0,.56-0.09,1,1,0,0,1-.4-0.83A7.65,7.65,0,0,0,2337.38,476.18Z" transform="translate(-2292.85 -454.1)"/><path class="cls-3" d="M2340.5,482.82l0.13-.13a1.89,1.89,0,0,0,1.2-.46c0.5-.63-0.28-0.73-0.67-1a1.2,1.2,0,0,1-.48-0.43,1.08,1.08,0,0,0-.36-0.63c-0.8-.16,0,1,0.2,1.2A1.57,1.57,0,0,0,2340.5,482.82Z" transform="translate(-2292.85 -454.1)"/><path class="cls-3" d="M2337.85,469.55a20,20,0,1,0,20,20A20,20,0,0,0,2337.85,469.55Zm11.58,6h0Zm-24.31,1c-0.4.48-.77,1-1.21,1.42-0.2.2-.38,0.4-0.56,0.61A18.35,18.35,0,0,1,2325.12,476.55Zm-5.48,13a18.15,18.15,0,0,1,.81-5.36,6.08,6.08,0,0,0-.16,1.61h0.17c0.29-.53,0-1.24.33-1.78a3.47,3.47,0,0,1,0,.58,8.92,8.92,0,0,1-.45,2,2.35,2.35,0,0,0,.2,1.59,4.46,4.46,0,0,0,.7,1.51,5.58,5.58,0,0,1,1,1.18,13.22,13.22,0,0,0,.38,1.47,11,11,0,0,1,.59,1.06c0.33,0.92-.3,1.88-0.21,2.9,0.12,1.31,1.26,2,1.83,3.12a28.31,28.31,0,0,1,1.21,3.08,5.67,5.67,0,0,0,.91,1.59A18.17,18.17,0,0,1,2319.64,489.55Zm34.86,7.36a1.26,1.26,0,0,0-.28-0.9l-0.09.1c0,0.21-.07.41-0.12,0.61a4.43,4.43,0,0,1-.66,1.34,1,1,0,0,0,0,.64,0.93,0.93,0,0,0,.32-0.12,18.13,18.13,0,0,1-23.35,7.51,1.12,1.12,0,0,1-.88-1c0.09,0,.21,0,0.3,0a0.32,0.32,0,0,1,.32-0.5c-0.39-.76.74-0.51,1.14-0.85,0.6-.5.08-1.17,0.85-1.52a4.76,4.76,0,0,0,1.72-.59c0.6-.57,0-1.17.33-1.82s1.07-.39.74-1.1a3.2,3.2,0,0,0-1.33-.91c-0.46-.27-0.77-0.65-1.22-0.94s-0.95-.14-1.25-0.34a1.87,1.87,0,0,1-.28-0.55c-0.68-1-1.74-1.25-2.59-2a6.19,6.19,0,0,0-1-1,2.94,2.94,0,0,0-1.54-.19c0-.34.09-0.87-0.33-0.95s-0.54.45-.72,0.76a2.2,2.2,0,0,1-1.08-1.07,4.53,4.53,0,0,1-.17-1,4.6,4.6,0,0,0-.43-0.72c-0.4-.83.52-0.88,0.37-1.64a0.68,0.68,0,0,0-.64-0.51,1,1,0,0,0-.33.7c-0.87-.07-0.09-2.38,0-2.85a0.76,0.76,0,0,1,.55.19,4.82,4.82,0,0,1,.72.35,1.7,1.7,0,0,1,.44,1.17c0.39,2.05.52-.62,1-1a4.1,4.1,0,0,0,1-.7,1.73,1.73,0,0,1,1-.82c0.3-.16,1.75-1.89,1.93-0.92,0.46,0.08.91,0,.74-0.5s-0.52-.3-0.93-0.33c0.33-1.1,1.85-.49,2.6-0.83a0.62,0.62,0,0,0,.38-0.93c-0.08-.22-0.36-0.39-0.44-0.59a3.49,3.49,0,0,1-.06-0.64c-0.12-.63-0.39-0.44-0.64-0.84s0.15-.81-0.32-1c-1.16-.49-1.09,2.1-2,1.91-0.05-1.07-.33-1.83.63-2.43,0.55-.35,2.69-0.76,2.54-1.44-0.12,0-.32,0-0.43,0,0-.55,1-1.13,0-1-0.37,0-1.35.86-1.52,0.08a1.4,1.4,0,0,1,.59-0.81c0.16-.27.11-0.57,0.26-0.83s1.39-.53,1.39-0.91a2.41,2.41,0,0,0,0-.3,17.78,17.78,0,0,1,10.29-.61,4.9,4.9,0,0,0,0,.84,10.29,10.29,0,0,0,1.07.39,3.23,3.23,0,0,1,1,.13c0.21,0.16.14,0.65,0.35,0.88a2.21,2.21,0,0,0,.74.41s0,0.14,0,.18c-0.08.62-.83,0.31-0.33,1.07,0.18,0.28,1.18,1.11.38,1.18-1,.09-1.35-2.14-2.43-1.54-0.56.31-.25,1.24-0.2,1.71a2.87,2.87,0,0,1-.45,1.47,1.59,1.59,0,0,0,.29,1.39c0.51,0.41.7-.16,1-0.55,0.66-.18,1.14,1.36,1.46.63a2.12,2.12,0,0,0-.63-1.41c-0.34-.44-1-1.37-0.07-0.76a3.3,3.3,0,0,0,.84.71,2.21,2.21,0,0,1,.56-0.38c0,0.54-.6.82-0.55,1.27s0.83,0.53.16,1.13a3.4,3.4,0,0,1-.62.34c-0.39,0-.19-0.2-0.43-0.52s-0.79-.7-0.78-0.06,0.69,0.64,0,1.15a1,1,0,0,0-.59.38c-0.12.24,0,.53-0.11,0.77s-1.47.34-1.3,0.77,1.27,0.24.93,0.78-1.29-.07-1.6.45a1.61,1.61,0,0,0,.43,1.45,3,3,0,0,0,1.59-.26,1.37,1.37,0,0,0,.89-0.83c0.62-1.21,1.09-1.43,2.17-.58,0.37,0.3,1.45.68,0.88-.11-0.31-.43-1.32-0.22-1.19-0.9a2.44,2.44,0,0,1,1.39.37c0.41,0.24.85,1.13,1.21,0.51,0.11-.19,0-0.53.08-0.75s0.27-.21.35-0.35c0.39-.67-0.06-0.34-0.12-0.94-0.08-.8,1.15-0.7,1.6-0.45a0.59,0.59,0,0,1,.45.69c-0.13.52-.65,0.3-1,0.48-0.6.28-1.44,1.72-.06,1.71,0.46,0,1.09-.61,1.38.06s-0.57,1-1,1.08a2.06,2.06,0,0,0-1,.27,4.36,4.36,0,0,1-.28.62c-0.38.26-1-.22-1.36-0.44a3,3,0,0,0-3.65-.26,3.32,3.32,0,0,1-1.55.58,1.82,1.82,0,0,0-1.39,1,12.22,12.22,0,0,0-.06,1.72,6,6,0,0,1-.73,1.58,2.29,2.29,0,0,0,.4,3.07,7.16,7.16,0,0,0,1.71,1.09c0.78,0.45.95,0.76,1.81,0.34,0.6-.29.92-0.86,1.57-0.89a4.57,4.57,0,0,1,1.6.32c0.15,0.9-.74,1.18-0.13,2.11a5.16,5.16,0,0,1,1.1,2.28c0.07,0.91-.4,1.74-0.07,2.66a1.6,1.6,0,0,0,1.09,1.17,1.8,1.8,0,0,0,1-.7c0.9-.74,1.61-1,2-2.23s1.37-1.92,1.66-3.06c0.38-1.48.15-3.14,0.45-4.66,0.12-.61,1.25-2.81.54-3.18a1.15,1.15,0,0,1-1.94-.25c-0.2-.35-0.3-0.71-0.51-1a2.18,2.18,0,0,1-.68-1.45c0.65,0,1.36,1.07,1.66,1.57,0.48,0.78,1,1.3,1.44.19a3,3,0,0,0,.19-2.47c-0.37-.75-0.45-0.25-1-0.27a0.68,0.68,0,0,1-.67-0.75,3.63,3.63,0,0,0,1.27.32c0.43-.12.24-0.6,0.83-0.47a0.81,0.81,0,0,1,.44.3A17.91,17.91,0,0,1,2354.5,496.91Z" transform="translate(-2292.85 -454.1)"/></g></svg>