<?xml version="1.0" encoding="utf-8"?>
<!-- Generator: Adobe Illustrator 19.1.0, SVG Export Plug-In . SVG Version: 6.00 Build 0)  -->
<svg version="1.1" id="Layer_1" xmlns="http://www.w3.org/2000/svg" xmlns:xlink="http://www.w3.org/1999/xlink" x="0px" y="0px"
	 viewBox="-288 411.9 18 18" style="enable-background:new -288 411.9 18 18;" xml:space="preserve">
<style type="text/css">
	.st0{fill:none;}
	.st1{fill:#FFFFFF;}
</style>
<g>
	<path class="st0" d="M-288,411.9h18v18h-18V411.9z"/>
	<path class="st1" d="M-281.7,426v2.4h2.4l6.9-6.9l-2.4-2.4L-281.7,426z M-270.6,419.6c0.2-0.2,0.2-0.6,0-0.9l-1.5-1.5
		c-0.2-0.2-0.6-0.2-0.9,0l-1.1,1.1l2.4,2.4C-271.7,420.8-270.6,419.6-270.6,419.6z"/>
	<path class="st1" d="M-278.5,419.9l-2.8-6.5h-1.5l-4.8,11h2.1l0.9-2.2h3.7L-278.5,419.9z M-282,415.4l1.9,5h-3.7L-282,415.4z"/>
</g>
</svg>
