<svg id="Layer_1" data-name="Layer 1" xmlns="http://www.w3.org/2000/svg" xmlns:xlink="http://www.w3.org/1999/xlink" viewBox="0 0 38 39"><defs><style>.cls-1{fill:#fff;}.cls-2{mask:url(#mask);}.cls-3{fill:url(#linear-gradient);}</style><mask id="mask" x="0" y="0" width="38" height="38.93" maskUnits="userSpaceOnUse"><g id="mask-3"><polygon id="path-2" class="cls-1" points="0 19.47 0 0 38 0 38 19.47 38 38.93 0 38.93 0 19.47"/></g></mask><linearGradient id="linear-gradient" x1="-603.18" y1="644.07" x2="-603.18" y2="643.07" gradientTransform="matrix(38, 0, 0, -38.93, 22940, 25074.53)" gradientUnits="userSpaceOnUse"><stop offset="0" stop-color="#8ec5ee"/><stop offset="1" stop-color="#5593d7"/></linearGradient></defs><title>Artboard 1</title><g id="Welcome"><g id="landing"><g id="Page-1"><g class="cls-2"><path id="Fill-1" class="cls-3" d="M35.63,0H2.38A2.38,2.38,0,0,0,0,2.36v26a2.38,2.38,0,0,0,2.38,2.36H12.59L18,38.44a1.17,1.17,0,0,0,1.91,0l5.45-7.71H35.63A2.38,2.38,0,0,0,38,28.36v-26A2.38,2.38,0,0,0,35.63,0"/></g></g></g></g></svg>