<?xml version="1.0" encoding="iso-8859-1"?>
<!-- Generator: Adobe Illustrator 19.0.0, SVG Export Plug-In . SVG Version: 6.00 Build 0)  -->
<svg version="1.1" id="Capa_1" xmlns="http://www.w3.org/2000/svg" xmlns:xlink="http://www.w3.org/1999/xlink" x="0px" y="0px"
	 viewBox="0 0 55 55" style="enable-background:new 0 0 55 55;" xml:space="preserve">
<path fill="#CBDCEE" d="M54.5,10c0-5.514-4.486-10-10-10c-4.469,0-8.261,2.948-9.539,7H5.735C2.849,7,0.5,9.349,0.5,12.235v37.529
	C0.5,52.651,2.849,55,5.735,55h37.529c2.887,0,5.235-2.349,5.235-5.235V19.159C52.027,17.612,54.5,14.091,54.5,10z M47.154,17.538
	c-0.198,0.07-0.398,0.13-0.599,0.185c-0.036,0.01-0.073,0.019-0.109,0.028c-0.177,0.045-0.355,0.084-0.534,0.117
	c-0.092,0.017-0.186,0.029-0.279,0.043c-0.134,0.02-0.269,0.04-0.403,0.053C44.989,17.985,44.746,18,44.5,18c-4.411,0-8-3.589-8-8
	c0-0.58,0.069-1.177,0.206-1.777C37.517,4.665,40.7,2,44.5,2c4.411,0,8,3.589,8,8C52.5,13.48,50.262,16.44,47.154,17.538z"/>
<g>
</g>
<g>
</g>
<g>
</g>
<g>
</g>
<g>
</g>
<g>
</g>
<g>
</g>
<g>
</g>
<g>
</g>
<g>
</g>
<g>
</g>
<g>
</g>
<g>
</g>
<g>
</g>
<g>
</g>
</svg>
