<svg id="Layer_1" data-name="Layer 1" xmlns="http://www.w3.org/2000/svg" xmlns:xlink="http://www.w3.org/1999/xlink" viewBox="0 0 46 36"><defs><style>.cls-1{fill:#fff;}.cls-2{mask:url(#mask);}.cls-3{fill:url(#linear-gradient);}</style><mask id="mask" x="0" y="0" width="45.98" height="35.8" maskUnits="userSpaceOnUse"><g id="mask-2"><polygon id="path-1" class="cls-1" points="22.99 0 0 0 0 35.8 45.98 35.8 45.98 0 22.99 0"/></g></mask><linearGradient id="linear-gradient" x1="-602.1" y1="641.65" x2="-602.1" y2="640.65" gradientTransform="matrix(45.98, 0, 0, -35.8, 27709.8, 22968.43)" gradientUnits="userSpaceOnUse"><stop offset="0" stop-color="#8ec5ee"/><stop offset="1" stop-color="#5593d7"/></linearGradient></defs><title>Artboard 1</title><g id="Welcome"><g id="landing"><g id="Page-1"><g class="cls-2"><path id="Fill-1" class="cls-3" d="M21.57,0C33.48,0,43.13,8,43.13,17.82a15.86,15.86,0,0,1-4.41,10.79c1.42,2.54,4.51,4.8,7.26,3.54-3.41,4.42-11.34,4.47-15.87,2a25.43,25.43,0,0,1-8.54,1.45C9.66,35.63,0,27.66,0,17.82S9.66,0,21.57,0"/></g></g></g></g></svg>