<svg xmlns="http://www.w3.org/2000/svg" viewBox="0 0 20 27.04"><defs><style>.cls-1{fill:#a0a0a0;}</style></defs><title>delete</title><g id="Layer_2" data-name="Layer 2"><g id="annotations"><path class="cls-1" d="M15.78,4.71V2.82A2.82,2.82,0,0,0,13,0H7A2.82,2.82,0,0,0,4.22,2.82V4.71H0V8.54H20V4.71ZM6.47,2.82A.58.58,0,0,1,7,2.25H13a.58.58,0,0,1,.57.57V4.71H6.47Z"/><path class="cls-1" d="M1.54,10V27H18.46V10ZM6.43,23.66a1,1,0,0,1-1,1h0a1,1,0,0,1-1-1V13.35a1,1,0,0,1,1-1h0a1,1,0,0,1,1,1Zm4.58,0a1,1,0,0,1-2,0V13.35a1,1,0,0,1,2,0Zm4.58,0a1,1,0,0,1-2,0V13.35a1,1,0,0,1,2,0Z"/></g></g></svg>