<svg xmlns="http://www.w3.org/2000/svg" viewBox="0 0 20 20"><defs><style>.cls-1{fill:#d0011b;}.cls-2{fill:#fff;}</style></defs><title>error</title><g id="Layer_2" data-name="Layer 2"><g id="annotations"><circle class="cls-1" cx="10" cy="10" r="10"/><path class="cls-2" d="M8.25,15.74a1.68,1.68,0,0,1,.45-1.27A1.83,1.83,0,0,1,10,14a1.77,1.77,0,0,1,1.29.44,1.67,1.67,0,0,1,.45,1.26A1.67,1.67,0,0,1,11.29,17a1.74,1.74,0,0,1-1.28.45A1.79,1.79,0,0,1,8.71,17,1.66,1.66,0,0,1,8.25,15.74Zm3-3.42H8.8L8.29,2.56h3.46Z"/></g></g></svg>