<svg xmlns="http://www.w3.org/2000/svg" viewBox="0 0 20 27.78"><defs><style>.cls-1{fill:#d7e7f4;}.cls-2{fill:#a0a0a0;}</style></defs><title>file</title><g id="Layer_2" data-name="Layer 2"><g id="annotations"><polygon class="cls-1" points="19 26.89 1 26.89 1 1 12.29 1 19 7.7 19 26.89"/><path class="cls-2" d="M20,7.76a1,1,0,0,0,0-.13l0-.09a1,1,0,0,0-.2-.32L12.84.3a1,1,0,0,0-.15-.11l0,0L12.53.09l-.11,0L12.3,0l-.18,0H1A1,1,0,0,0,0,1V26.78a1,1,0,0,0,1,1H19a1,1,0,0,0,1-1V7.93A1,1,0,0,0,20,7.76ZM13.13,3.44l3.45,3.47H13.13ZM2,25.78V2h9.13V7.92a1,1,0,0,0,1,1H18V25.78Z"/></g></g></svg>