<svg xmlns="http://www.w3.org/2000/svg" viewBox="0 0 30 30"><defs><style>.cls-1{fill:#a0a0a0;}</style></defs><title>home</title><g id="Layer_2" data-name="Layer 2"><g id="annotations"><path class="cls-1" d="M15,1.81a.74.74,0,0,1,.54.23l4.36,4.28V3.48a.55.55,0,0,1,.55-.56h2.46a.55.55,0,0,1,.55.56V9.8L28,14.32a.73.73,0,0,1-.53,1.23h-4a.64.64,0,0,1,0,.09V27.47a.72.72,0,0,1-.71.73H18a.72.72,0,0,1-.71-.73v-4a.72.72,0,0,0-.71-.73h-3a.72.72,0,0,0-.71.73v4a.72.72,0,0,1-.71.73H7.3a.72.72,0,0,1-.71-.73V15.64a.64.64,0,0,1,0-.09H2.52A.73.73,0,0,1,2,14.32L14.48,2A.74.74,0,0,1,15,1.81M15,0a2.52,2.52,0,0,0-1.79.76L.74,13l0,0,0,0a2.55,2.55,0,0,0-.5,2.74,2.51,2.51,0,0,0,2.32,1.55H4.81V27.47A2.51,2.51,0,0,0,7.3,30h4.79a2.51,2.51,0,0,0,2.49-2.53V24.58h.89v2.89A2.51,2.51,0,0,0,18,30h4.79a2.51,2.51,0,0,0,2.49-2.53V17.36h2.24a2.51,2.51,0,0,0,2.31-1.54,2.56,2.56,0,0,0-.48-2.74l0,0,0,0-4-4V3.48a2.35,2.35,0,0,0-2.33-2.36H20.47a2.32,2.32,0,0,0-2,1.23L16.82.76A2.52,2.52,0,0,0,15,0Z"/></g></g></svg>