<svg xmlns="http://www.w3.org/2000/svg" viewBox="0 0 96 79.8"><defs><style>.cls-1{fill:#fff;}</style></defs><title>create new selected</title><g id="Layer_2" data-name="Layer 2"><g id="annotations"><path class="cls-1" d="M76.85,0A19.18,19.18,0,0,0,57.77,17.45H39.08V14.87a6,6,0,0,0-6-6H6a6,6,0,0,0-6,6V71.15A8.66,8.66,0,0,0,8.65,79.8H79.17a8.66,8.66,0,0,0,8.65-8.65V34.84A19.14,19.14,0,0,0,76.85,0Zm8.89,71.15a6.57,6.57,0,0,1-6.56,6.57H8.65a6.57,6.57,0,0,1-6.56-6.57V14.87a4,4,0,0,1,4-4H33a4,4,0,0,1,4,4v4.67H57.7a19.14,19.14,0,0,0,28,16.57Zm2.08-38.94a17.15,17.15,0,0,1-2.08,1.49A17,17,0,0,1,59.8,19.54c0-.13,0-.25,0-.38,0-.57,0-1.14.09-1.7a17.07,17.07,0,1,1,28,14.76Z"/><polygon class="cls-1" points="87.2 17 79 17 79 8.8 74.69 8.8 74.69 17 66.5 17 66.5 21.31 74.69 21.31 74.69 29.5 79 29.5 79 21.31 87.2 21.31 87.2 17"/></g></g></svg>