<svg xmlns="http://www.w3.org/2000/svg" viewBox="0 0 37.17 42"><defs><style>.cls-1{fill:#5593d7;}</style></defs><title>reconnect</title><g id="Layer_2" data-name="Layer 2"><g id="annotations"><path class="cls-1" d="M16.17,42A21,21,0,0,1,0,34.4l1.54-1.28a19,19,0,1,0,0-24.25L0,7.6A21,21,0,1,1,16.17,42Z"/><path class="cls-1" d="M29.64,28l-3.86-7-7,3.86,3.77,1.08a8.19,8.19,0,0,1-14-1.65L5.73,25.54a11.27,11.27,0,0,0,20,1.3Z"/><path class="cls-1" d="M6.32,21l7-3.86L9.53,16.06a8.19,8.19,0,0,1,14,1.65l2.83-1.25a11.27,11.27,0,0,0-20-1.3L2.46,14Z"/></g></g></svg>