<svg xmlns="http://www.w3.org/2000/svg" viewBox="0 0 30 30"><defs><style>.cls-1{fill:#a6cced;}.cls-2{fill:#5593d7;}</style></defs><title>ID</title><g id="Layer_2" data-name="Layer 2"><g id="annotations"><path class="cls-1" d="M18.51,15.51a6.66,6.66,0,0,1-3.45,1H15a6.65,6.65,0,0,1-3.51-1A4.09,4.09,0,0,0,9,19v7.09a12.6,12.6,0,0,0,11.93,0V19A4.09,4.09,0,0,0,18.51,15.51Z"/><path class="cls-1" d="M18.38,6.36A4.79,4.79,0,0,0,15,5h0a4.83,4.83,0,0,0-3.34,8.27,5,5,0,0,0,1.12.82l.13.07a4.72,4.72,0,0,0,.82.32,4.46,4.46,0,0,0,1.36.17,4.84,4.84,0,0,0,1.24-.18,4.75,4.75,0,0,0,.84-.32l.14-.07a4.83,4.83,0,0,0,1.13-7.71Z"/><path class="cls-2" d="M29.83,12.72a14.89,14.89,0,0,0-1-3.55q-.28-.67-.63-1.31t-.75-1.24a15.1,15.1,0,0,0-1.33-1.7q-.48-.53-1-1a15.06,15.06,0,0,0-1.7-1.33q-.6-.4-1.24-.75t-1.31-.63a14.89,14.89,0,0,0-3.55-1,15.18,15.18,0,0,0-4.57,0,14.89,14.89,0,0,0-3.55,1q-.67.28-1.31.63t-1.24.75A15.1,15.1,0,0,0,4.91,3.9q-.53.48-1,1a15,15,0,0,0-1.33,1.7q-.4.6-.75,1.24T1.18,9.16a14.89,14.89,0,0,0-.71,2.09q-.18.72-.3,1.46a15.18,15.18,0,0,0,0,4.57q.11.74.3,1.46a14.89,14.89,0,0,0,.71,2.09q.28.67.63,1.31t.75,1.24a15,15,0,0,0,1.33,1.7q.48.53,1,1a15.08,15.08,0,0,0,1.7,1.33q.6.4,1.24.75t1.31.63a14.89,14.89,0,0,0,3.55,1,15.19,15.19,0,0,0,4.57,0,14.89,14.89,0,0,0,3.55-1q.67-.28,1.31-.63t1.24-.75a15,15,0,0,0,1.7-1.33q.53-.48,1-1a15.1,15.1,0,0,0,1.33-1.7q.4-.6.75-1.24t.63-1.31a14.89,14.89,0,0,0,1-3.55,15.18,15.18,0,0,0,0-4.57ZM15,27.62a12.54,12.54,0,0,1-6-1.5V19a4.09,4.09,0,0,1,2.45-3.52,6.65,6.65,0,0,0,3.51,1h.06a6.66,6.66,0,0,0,3.45-1A4.09,4.09,0,0,1,21,19v7.09A12.54,12.54,0,0,1,15,27.62Zm0-13a4.46,4.46,0,0,1-1.36-.17,4.72,4.72,0,0,1-.82-.32l-.13-.07a5,5,0,0,1-1.12-.82A4.83,4.83,0,0,1,15,5h0a4.83,4.83,0,0,1,2.25,9.09l-.14.07a4.75,4.75,0,0,1-.84.32A4.84,4.84,0,0,1,15,14.63Z"/></g></g></svg>