<svg xmlns="http://www.w3.org/2000/svg" viewBox="0 0 26 26.5"><defs><style>.cls-1{fill:#a0a0a0;}</style></defs><title>remap</title><g id="Layer_2" data-name="Layer 2"><g id="annotations"><path class="cls-1" d="M13.14,0A5.29,5.29,0,0,0,7.86,5.29c0,2.92,5.29,8.38,5.29,8.38s5.29-5.46,5.29-8.38A5.29,5.29,0,0,0,13.14,0Zm0,8.83a3.54,3.54,0,1,1,3.54-3.54A3.54,3.54,0,0,1,13.14,8.83Z"/><path class="cls-1" d="M3.85,17.87a8.58,8.58,0,0,1,3-.6h0A8.58,8.58,0,0,0,3.85,17.87Z"/><path class="cls-1" d="M25.47,22.52a14.11,14.11,0,0,1-2.73,1l-.42-1.71a12.76,12.76,0,0,0,2.91-1.15L23.29,6.28H19.83c-.35,1.44-1.55,4.3-5.58,8.46l-1.11,1.15L12,14.74c-4-4.17-5.23-7-5.58-8.46H2.71L1.25,17.16l.68-.37.79,1.57A14,14,0,0,0,.94,19.45L0,26.5H26ZM7.36,17.28l-.47,0h0a8.58,8.58,0,0,0-3,.6l-.63-1.64a10.33,10.33,0,0,1,3.67-.71h0l.58,0Zm1.15.18.42-1.71a9.19,9.19,0,0,1,3.82,2l-1.15,1.33A7.45,7.45,0,0,0,8.51,17.46Zm7.18,5.26a11.17,11.17,0,0,1-3-2.49L12.48,20l1.3-1.19.25.28a9.42,9.42,0,0,0,2.52,2.11Zm4.43,1.14a9.09,9.09,0,0,1-3.1-.54l.6-1.65a7.57,7.57,0,0,0,3.5.37l.21,1.75A10.34,10.34,0,0,1,20.12,23.86Z"/></g></g></svg>