<svg xmlns="http://www.w3.org/2000/svg" viewBox="0 0 90 78.4"><defs><style>.cls-1{fill:#4d4d4d;}</style></defs><title>template</title><g id="Layer_2" data-name="Layer 2"><g id="annotations"><polygon class="cls-1" points="90 32.94 84.22 32.94 84.22 31.29 88.35 31.29 88.35 27.16 90 27.16 90 32.94"/><path class="cls-1" d="M79.32,32.94H69.51V31.29h9.81Zm-14.71,0H54.81V31.29h9.81Zm-14.71,0H40.1V31.29H49.9Zm-29.42,0H10.68V31.29h9.81Z"/><polygon class="cls-1" points="5.78 32.94 0 32.94 0 27.16 1.65 27.16 1.65 31.29 5.78 31.29 5.78 32.94"/><rect class="cls-1" y="11.13" width="1.65" height="10.69"/><polygon class="cls-1" points="1.65 5.78 0 5.78 0 0 5.78 0 5.78 1.65 1.65 1.65 1.65 5.78"/><path class="cls-1" d="M79.32,1.65H69.51V0h9.81Zm-14.71,0H54.81V0h9.81Zm-14.71,0H40.1V0H49.9Zm-14.71,0H25.39V0h9.81Zm-14.71,0H10.68V0h9.81Z"/><polygon class="cls-1" points="90 5.78 88.35 5.78 88.35 1.65 84.22 1.65 84.22 0 90 0 90 5.78"/><rect class="cls-1" x="88.35" y="11.13" width="1.65" height="10.69"/><rect class="cls-1" y="45.78" width="90" height="4.95" rx="2.48" ry="2.48"/><rect class="cls-1" y="59.61" width="90" height="4.95" rx="2.48" ry="2.48"/><rect class="cls-1" y="73.44" width="90" height="4.95" rx="2.48" ry="2.48"/><rect class="cls-1" x="25.18" y="25.55" width="9.91" height="12.39"/><polygon class="cls-1" points="18.45 26.38 30.14 14.69 41.83 26.38 18.45 26.38"/></g></g></svg>