<svg xmlns="http://www.w3.org/2000/svg" xmlns:xlink="http://www.w3.org/1999/xlink" viewBox="0 0 188.99 32.14"><defs><style>.cls-1,.cls-2{fill:none;}.cls-1{clip-rule:evenodd;}.cls-3{clip-path:url(#clip-path);}.cls-4{clip-path:url(#clip-path-2);}.cls-5{fill:#5a90cb;}.cls-6{clip-path:url(#clip-path-3);}.cls-7{clip-path:url(#clip-path-4);}.cls-8{fill:#58595b;}.cls-9{clip-path:url(#clip-path-5);}.cls-10{clip-path:url(#clip-path-6);}.cls-11{clip-path:url(#clip-path-7);}.cls-12{clip-path:url(#clip-path-9);}.cls-13{clip-path:url(#clip-path-11);}.cls-14{clip-path:url(#clip-path-13);}.cls-15{clip-path:url(#clip-path-15);}.cls-16{clip-path:url(#clip-path-17);}.cls-17{clip-path:url(#clip-path-19);}.cls-18{clip-path:url(#clip-path-20);}.cls-19{clip-path:url(#clip-path-21);}.cls-20{clip-path:url(#clip-path-23);}.cls-21{clip-path:url(#clip-path-25);}.cls-22{clip-path:url(#clip-path-27);}.cls-23{clip-path:url(#clip-path-29);}.cls-24{clip-path:url(#clip-path-31);}.cls-25{clip-path:url(#clip-path-33);}.cls-26{clip-path:url(#clip-path-35);}.cls-27{clip-path:url(#clip-path-37);}</style><clipPath id="clip-path" transform="translate(-41 -26)"><path class="cls-1" d="M64.52,43.48a1.41,1.41,0,1,0,0-2.82,1.45,1.45,0,0,0-.82.25l-2-1.14s0-.07,0-.11,0-.08,0-.11l2-1.14a1.45,1.45,0,0,0,.82.25,1.41,1.41,0,1,0,0-2.82,1.45,1.45,0,0,0-.82.25l-2-1.14s0-.07,0-.11a1.44,1.44,0,1,0-1.44,1.41,1.45,1.45,0,0,0,.82-.25l2,1.14s0,.08,0,.11,0,.08,0,.11l-2,1.14a1.46,1.46,0,0,0-1.63,0l-2-1.14s0-.07,0-.11A1.41,1.41,0,0,0,56.59,36V33.68a1.41,1.41,0,0,0,.82-1.27,1.44,1.44,0,0,0-2.88,0,1.41,1.41,0,0,0,.82,1.27V36a1.41,1.41,0,0,0-.82,1.27A1.42,1.42,0,0,0,56,38.65a1.45,1.45,0,0,0,.82-.25l2,1.14s0,.08,0,.11,0,.08,0,.11l-2,1.14a1.46,1.46,0,0,0-1.63,0l-2-1.14s0-.07,0-.11a1.41,1.41,0,0,0-.82-1.27V36.09a1.41,1.41,0,0,0,.82-1.27,1.44,1.44,0,0,0-2.88,0,1.41,1.41,0,0,0,.82,1.27v2.29l-.2.11-2-1.14s0-.07,0-.11a1.44,1.44,0,0,0-2.88,0,1.41,1.41,0,0,0,.82,1.27V40.8A1.41,1.41,0,0,0,46,42.07a1.44,1.44,0,0,0,2.88,0,1.41,1.41,0,0,0-.82-1.27V38.51l.2-.11,2,1.14s0,.08,0,.11a1.41,1.41,0,0,0,.82,1.27v2.29a1.41,1.41,0,0,0-.82,1.27s0,.08,0,.11l-2,1.14a1.45,1.45,0,0,0-.82-.25,1.41,1.41,0,1,0,1.44,1.41s0-.08,0-.11l2-1.14a1.45,1.45,0,0,0,.82.25,1.42,1.42,0,0,0,1.44-1.41,1.41,1.41,0,0,0-.82-1.27V40.92l.2-.11,2,1.14s0,.08,0,.11a1.41,1.41,0,0,0,.82,1.27v2.29a1.41,1.41,0,0,0-.82,1.27s0,.08,0,.11l-2,1.14a1.46,1.46,0,0,0-.82-.25,1.41,1.41,0,1,0,1.44,1.41s0-.08,0-.11l2-1.14.2.11v2.29a1.41,1.41,0,0,0-.82,1.27,1.44,1.44,0,0,0,2.88,0s0-.08,0-.11l2-1.14a1.45,1.45,0,0,0,.82.25,1.41,1.41,0,1,0-1.44-1.41s0,.08,0,.11l-2,1.14-.2-.11V48.17a1.41,1.41,0,0,0,.82-1.27s0-.08,0-.11l2-1.14a1.46,1.46,0,0,0,1.63,0l2,1.14s0,.07,0,.11a1.44,1.44,0,1,0,1.44-1.41,1.45,1.45,0,0,0-.82.25l-2-1.14s0-.07,0-.11a1.44,1.44,0,0,0-2.88,0s0,.08,0,.11l-2,1.14-.2-.11V43.34a1.41,1.41,0,0,0,.82-1.27s0-.08,0-.11l2-1.14a1.46,1.46,0,0,0,1.63,0l2,1.14s0,.08,0,.11a1.42,1.42,0,0,0,1.44,1.41"/></clipPath><clipPath id="clip-path-2" transform="translate(-41 -26)"><rect class="cls-2" x="46" y="31" width="20" height="23"/></clipPath><clipPath id="clip-path-3" transform="translate(-41 -26)"><path class="cls-1" d="M77.27,47.26a5.12,5.12,0,0,0,3.25-.94,3,3,0,0,0,1.2-2.48,3.09,3.09,0,0,0-.84-2.24,3.18,3.18,0,0,0-.93-.57,7.56,7.56,0,0,0-2.11-.48,6.09,6.09,0,0,1-1.56-.3c-.48-.17-.69-.44-.69-.81,0-.72.53-1,1.77-1a1.8,1.8,0,0,1,1.77,1c.23.41.37.48.78.3L81,39.21c.43-.18.53-.39.33-.81-.7-1.5-1.87-2.2-4-2.2-2.71,0-4.27,1.36-4.27,3.35A3,3,0,0,0,74,41.82a3.17,3.17,0,0,0,1,.54,6.71,6.71,0,0,0,1.06.28c.28,0,.66.1,1.14.16,1.3.14,2,.4,2,1.08s-.66,1.18-2,1.18a1.9,1.9,0,0,1-1.93-1c-.2-.46-.36-.52-.79-.36l-1.1.39c-.42.17-.52.34-.39.78.6,1.61,2,2.42,4.21,2.42"/></clipPath><clipPath id="clip-path-4" transform="translate(-41 -26)"><rect class="cls-2" x="73" y="36" width="9" height="12"/></clipPath><clipPath id="clip-path-5" transform="translate(-41 -26)"><path class="cls-1" d="M93.49,46.44,89.9,36.91c-.13-.37-.31-.48-.75-.48H88c-.44,0-.61.1-.75.51l-3.58,9.5c-.15.4,0,.6.41.6h1c.73,0,.93-.12,1.09-.55l.48-1.4h3.7l.47,1.4c.14.43.38.55,1.11.55h1.13C93.5,47,93.64,46.84,93.49,46.44Zm-6.16-3.33.78-2.33a6.14,6.14,0,0,0,.34-2.12h.15l0,.28A9,9,0,0,0,89,40.79l.78,2.31Z"/></clipPath><clipPath id="clip-path-6" transform="translate(-41 -26)"><rect class="cls-2" width="900" height="1024"/></clipPath><clipPath id="clip-path-7" transform="translate(-41 -26)"><path class="cls-1" d="M98.26,43h3.45c.47,0,.62-.13.62-.6v-1c0-.46-.15-.61-.62-.61H98.26V38.64h4.2c.47,0,.62-.13.62-.6V37c0-.46-.15-.61-.62-.61h-6c-.47,0-.62.15-.62.61v9.38c0,.46.15.61.62.61h1.21c.46,0,.61-.15.61-.61Z"/></clipPath><clipPath id="clip-path-9" transform="translate(-41 -26)"><path class="cls-1" d="M113.27,46.43v-1c0-.43-.18-.61-.61-.61H108.3v-2h3.45c.47,0,.61-.15.61-.61v-1c0-.46-.15-.6-.61-.6H108.3V38.64h4.2c.46,0,.61-.13.61-.6V37c0-.46-.15-.61-.61-.61h-6c-.46,0-.61.15-.61.61v9.38c0,.46.15.61.61.61h6.17c.46,0,.61-.15.61-.61"/></clipPath><clipPath id="clip-path-11" transform="translate(-41 -26)"><polygon class="cls-1" points="126.53 46.47 125.83 46.47 125.83 41.58 120 41.58 120 46.47 119.3 46.47 119.3 36.52 120 36.52 120 40.94 125.83 40.94 125.83 36.52 126.53 36.52 126.53 46.47"/></clipPath><clipPath id="clip-path-13" transform="translate(-41 -26)"><path class="cls-1" d="M135.33,42.76a4.18,4.18,0,0,1-.88,2.83,3,3,0,0,1-2.43,1,3.15,3.15,0,0,1-1.72-.47,3,3,0,0,1-1.14-1.35,4.89,4.89,0,0,1-.4-2,4.16,4.16,0,0,1,.88-2.82,3,3,0,0,1,2.42-1,3,3,0,0,1,2.4,1,4.2,4.2,0,0,1,.87,2.81m-5.86,0a3.76,3.76,0,0,0,.67,2.38,2.54,2.54,0,0,0,3.8,0,3.76,3.76,0,0,0,.67-2.38,3.7,3.7,0,0,0-.68-2.38,2.31,2.31,0,0,0-1.91-.84,2.28,2.28,0,0,0-1.89.84,3.75,3.75,0,0,0-.67,2.38"/></clipPath><clipPath id="clip-path-15" transform="translate(-41 -26)"><path class="cls-1" d="M142,44.54a1.76,1.76,0,0,1-.76,1.53,3.7,3.7,0,0,1-2.15.53,5.14,5.14,0,0,1-2.36-.46v-.73a5.23,5.23,0,0,0,2.36.56,3.13,3.13,0,0,0,1.67-.36,1.11,1.11,0,0,0,.57-1,1.18,1.18,0,0,0-.45-.94,5,5,0,0,0-1.49-.75,8.55,8.55,0,0,1-1.56-.69,2.16,2.16,0,0,1-.68-.65,1.64,1.64,0,0,1-.23-.89,1.52,1.52,0,0,1,.7-1.31,3.41,3.41,0,0,1,2-.48,5.87,5.87,0,0,1,2.28.45l-.25.61a5.36,5.36,0,0,0-2-.45,3,3,0,0,0-1.44.3.92.92,0,0,0-.53.83,1.15,1.15,0,0,0,.41.93,5.77,5.77,0,0,0,1.61.78,8,8,0,0,1,1.46.65,2.12,2.12,0,0,1,.69.66,1.6,1.6,0,0,1,.23.86"/></clipPath><clipPath id="clip-path-17" transform="translate(-41 -26)"><path class="cls-1" d="M145.86,46A5.08,5.08,0,0,0,147,45.9v.54a3.59,3.59,0,0,1-1.13.16,1.85,1.85,0,0,1-1.45-.52,2.43,2.43,0,0,1-.47-1.65V39.66h-1.1v-.39l1.1-.31.34-1.67h.35v1.79h2.18v.59h-2.18v4.68a2.13,2.13,0,0,0,.3,1.26,1.09,1.09,0,0,0,.94.41"/></clipPath><clipPath id="clip-path-19" transform="translate(-41 -26)"><path class="cls-1" d="M148.49,37q0-.65.43-.65a.38.38,0,0,1,.33.17.84.84,0,0,1,.12.48.85.85,0,0,1-.12.48.38.38,0,0,1-.33.18Q148.49,37.68,148.49,37Zm.1,9.46h.68v-7.4h-.68Z"/></clipPath><clipPath id="clip-path-20" transform="translate(-41 -26)"><rect class="cls-2" x="73" y="36" width="152" height="14"/></clipPath><clipPath id="clip-path-21" transform="translate(-41 -26)"><path class="cls-1" d="M156.92,46.47v-4.8a2.34,2.34,0,0,0-.47-1.62,1.91,1.91,0,0,0-1.46-.51,2.53,2.53,0,0,0-1.95.67,3.15,3.15,0,0,0-.62,2.17v4.08h-.68v-7.4h.57l.13,1h0a2.79,2.79,0,0,1,2.57-1.16q2.53,0,2.53,2.7v4.84Z"/></clipPath><clipPath id="clip-path-23" transform="translate(-41 -26)"><path class="cls-1" d="M165.78,39.07v.47l-1.54.1a2.61,2.61,0,0,1,.61,1.67,2.26,2.26,0,0,1-.71,1.73,2.7,2.7,0,0,1-1.92.66,4.18,4.18,0,0,1-.71,0,1.77,1.77,0,0,0-.61.5,1,1,0,0,0-.21.61.56.56,0,0,0,.27.52,1.84,1.84,0,0,0,.9.16h1.3a3,3,0,0,1,1.85.49,1.69,1.69,0,0,1,.64,1.44,2,2,0,0,1-1,1.81,4.87,4.87,0,0,1-2.71.64,3.74,3.74,0,0,1-2.17-.54,1.73,1.73,0,0,1-.77-1.5,1.77,1.77,0,0,1,.47-1.27,2.46,2.46,0,0,1,1.29-.69,1.31,1.31,0,0,1-.54-.41,1,1,0,0,1-.2-.6,1.58,1.58,0,0,1,.95-1.31,2.11,2.11,0,0,1-1-.83,2.37,2.37,0,0,1-.36-1.3,2.34,2.34,0,0,1,.71-1.78,2.66,2.66,0,0,1,1.91-.67,3.53,3.53,0,0,1,1.13.14Zm-6,8.65q0,1.52,2.27,1.52,2.92,0,2.92-1.86a1.07,1.07,0,0,0-.46-1,2.79,2.79,0,0,0-1.48-.3h-1.22Q159.77,46.12,159.77,47.72Zm.57-6.34a1.7,1.7,0,0,0,.52,1.33,2.34,2.34,0,0,0,2.82,0,1.79,1.79,0,0,0,.49-1.36,1.85,1.85,0,0,0-.51-1.42,2,2,0,0,0-1.42-.47,1.76,1.76,0,0,0-1.91,1.92Z"/></clipPath><clipPath id="clip-path-25" transform="translate(-41 -26)"><path class="cls-1" d="M175.5,46.47l-3.72-9.19h-.05q.05.84.05,1.73v7.46h-.67v-10h1.08l3.54,8.75h0l3.54-8.75h1.05v10h-.7V38.93q0-.79.08-1.63h-.05l-3.74,9.18Z"/></clipPath><clipPath id="clip-path-27" transform="translate(-41 -26)"><path class="cls-1" d="M187.51,46.47l-.17-1.17h-.05a3.52,3.52,0,0,1-1.15,1,3.08,3.08,0,0,1-1.4.3A2.42,2.42,0,0,1,183,46a2,2,0,0,1-.61-1.55,1.91,1.91,0,0,1,.9-1.68,4.93,4.93,0,0,1,2.62-.63l1.41,0v-.49a2.51,2.51,0,0,0-.43-1.59,1.67,1.67,0,0,0-1.39-.54,4.65,4.65,0,0,0-2.14.57l-.25-.59a5.67,5.67,0,0,1,2.42-.57,2.41,2.41,0,0,1,1.83.63,2.78,2.78,0,0,1,.6,2v4.92ZM184.78,46a2.55,2.55,0,0,0,1.87-.68,2.53,2.53,0,0,0,.69-1.88v-.73l-1.3.05a4.92,4.92,0,0,0-2.23.49,1.4,1.4,0,0,0-.67,1.28,1.38,1.38,0,0,0,.43,1.08A1.74,1.74,0,0,0,184.78,46Z"/></clipPath><clipPath id="clip-path-29" transform="translate(-41 -26)"><path class="cls-1" d="M195.59,46.47v-4.8a2.34,2.34,0,0,0-.47-1.62,1.91,1.91,0,0,0-1.46-.51,2.53,2.53,0,0,0-1.95.67,3.15,3.15,0,0,0-.62,2.17v4.08h-.68v-7.4H191l.13,1h0a2.79,2.79,0,0,1,2.57-1.16q2.53,0,2.53,2.7v4.84Z"/></clipPath><clipPath id="clip-path-31" transform="translate(-41 -26)"><path class="cls-1" d="M203.17,46.47,203,45.3h-.05a3.52,3.52,0,0,1-1.15,1,3.08,3.08,0,0,1-1.4.3,2.42,2.42,0,0,1-1.7-.56,2,2,0,0,1-.61-1.55,1.91,1.91,0,0,1,.9-1.68,4.93,4.93,0,0,1,2.62-.63l1.41,0v-.49a2.51,2.51,0,0,0-.43-1.59,1.67,1.67,0,0,0-1.39-.54,4.65,4.65,0,0,0-2.14.57l-.25-.59a5.67,5.67,0,0,1,2.42-.57,2.41,2.41,0,0,1,1.83.63,2.78,2.78,0,0,1,.6,2v4.92ZM200.44,46a2.55,2.55,0,0,0,1.87-.68,2.53,2.53,0,0,0,.69-1.88v-.73l-1.3.05a4.92,4.92,0,0,0-2.23.49,1.4,1.4,0,0,0-.67,1.28,1.38,1.38,0,0,0,.43,1.08A1.74,1.74,0,0,0,200.44,46Z"/></clipPath><clipPath id="clip-path-33" transform="translate(-41 -26)"><path class="cls-1" d="M211.86,39.07v.47l-1.54.1a2.61,2.61,0,0,1,.61,1.67,2.26,2.26,0,0,1-.71,1.73,2.7,2.7,0,0,1-1.92.66,4.18,4.18,0,0,1-.71,0,1.77,1.77,0,0,0-.61.5,1,1,0,0,0-.21.61.56.56,0,0,0,.27.52,1.84,1.84,0,0,0,.9.16h1.3a3,3,0,0,1,1.85.49,1.69,1.69,0,0,1,.64,1.44,2,2,0,0,1-1,1.81,4.87,4.87,0,0,1-2.71.64,3.74,3.74,0,0,1-2.17-.54,1.73,1.73,0,0,1-.77-1.5,1.77,1.77,0,0,1,.47-1.27,2.46,2.46,0,0,1,1.29-.69,1.31,1.31,0,0,1-.54-.41,1,1,0,0,1-.2-.6,1.58,1.58,0,0,1,.95-1.31,2.11,2.11,0,0,1-1-.83,2.37,2.37,0,0,1-.36-1.3,2.34,2.34,0,0,1,.71-1.78,2.66,2.66,0,0,1,1.91-.67,3.53,3.53,0,0,1,1.13.14Zm-6,8.65q0,1.52,2.27,1.52,2.92,0,2.92-1.86a1.07,1.07,0,0,0-.46-1,2.79,2.79,0,0,0-1.48-.3h-1.22Q205.85,46.12,205.85,47.72Zm.57-6.34a1.7,1.7,0,0,0,.52,1.33,2.34,2.34,0,0,0,2.82,0,1.79,1.79,0,0,0,.49-1.36,1.85,1.85,0,0,0-.51-1.42,2,2,0,0,0-1.42-.47,1.76,1.76,0,0,0-1.91,1.92Z"/></clipPath><clipPath id="clip-path-35" transform="translate(-41 -26)"><path class="cls-1" d="M216.38,46.61a3.24,3.24,0,0,1-2.52-1,4,4,0,0,1-.9-2.78,4.33,4.33,0,0,1,.87-2.84,2.89,2.89,0,0,1,2.36-1.07,2.55,2.55,0,0,1,2.07.91,3.76,3.76,0,0,1,.76,2.48v.54h-5.35a3.49,3.49,0,0,0,.71,2.33,2.52,2.52,0,0,0,2,.8,6.2,6.2,0,0,0,1.12-.09,6.79,6.79,0,0,0,1.22-.38v.61a5.44,5.44,0,0,1-1.16.37,6.47,6.47,0,0,1-1.17.1m-.2-7.08a2.23,2.23,0,0,0-1.72.7,3.32,3.32,0,0,0-.76,2h4.59a3.22,3.22,0,0,0-.56-2,1.85,1.85,0,0,0-1.55-.72"/></clipPath><clipPath id="clip-path-37" transform="translate(-41 -26)"><path class="cls-1" d="M224,38.93a5.82,5.82,0,0,1,1,.1l-.13.65a4,4,0,0,0-1-.12,1.87,1.87,0,0,0-1.56.8,3.27,3.27,0,0,0-.61,2v4.08h-.68v-7.4h.57l.07,1.33h0a3.14,3.14,0,0,1,1-1.15,2.29,2.29,0,0,1,1.26-.33"/></clipPath></defs><title>Asset 70</title><g id="Layer_2" data-name="Layer 2"><g id="annotations"><g class="cls-3"><g class="cls-4"><rect class="cls-5" width="29.96" height="32.14"/></g></g><g class="cls-6"><g class="cls-7"><rect class="cls-8" x="27" y="5.21" width="18.72" height="21.06"/></g></g><g class="cls-9"><g class="cls-10"><rect class="cls-8" x="37.61" y="5.43" width="19.93" height="20.61"/></g></g><g class="cls-11"><g class="cls-10"><rect class="cls-8" x="49.81" y="5.43" width="17.26" height="20.61"/></g></g><g class="cls-12"><g class="cls-10"><rect class="cls-8" x="59.86" y="5.43" width="17.4" height="20.61"/></g></g><g class="cls-13"><g class="cls-10"><rect class="cls-8" x="73.3" y="5.52" width="17.23" height="19.95"/></g></g><g class="cls-14"><g class="cls-10"><rect class="cls-8" x="82.76" y="7.93" width="16.57" height="17.68"/></g></g><g class="cls-15"><g class="cls-10"><rect class="cls-8" x="90.71" y="7.93" width="15.27" height="17.68"/></g></g><g class="cls-16"><g class="cls-10"><rect class="cls-8" x="96.82" y="6.28" width="14.15" height="19.33"/></g></g><g class="cls-17"><g class="cls-18"><rect class="cls-8" x="102.49" y="5.36" width="10.88" height="20.11"/></g></g><g class="cls-19"><g class="cls-18"><rect class="cls-8" x="105.74" y="7.93" width="15.85" height="17.54"/></g></g><g class="cls-20"><g class="cls-18"><rect class="cls-8" x="113.06" y="7.93" width="16.73" height="20.89"/></g></g><g class="cls-21"><g class="cls-18"><rect class="cls-8" x="125.11" y="5.52" width="19.25" height="19.95"/></g></g><g class="cls-22"><g class="cls-18"><rect class="cls-8" x="136.43" y="7.94" width="15.58" height="17.67"/></g></g><g class="cls-23"><g class="cls-18"><rect class="cls-8" x="144.41" y="7.93" width="15.85" height="17.54"/></g></g><g class="cls-24"><g class="cls-18"><rect class="cls-8" x="152.09" y="7.94" width="15.58" height="17.67"/></g></g><g class="cls-25"><g class="cls-18"><rect class="cls-8" x="159.14" y="7.93" width="16.73" height="20.89"/></g></g><g class="cls-26"><g class="cls-18"><rect class="cls-8" x="166.95" y="7.93" width="16.06" height="17.68"/></g></g><g class="cls-27"><g class="cls-18"><rect class="cls-8" x="175.06" y="7.93" width="13.93" height="17.54"/></g></g></g></g></svg>