<svg xmlns="http://www.w3.org/2000/svg" viewBox="0 0 87 87.93"><defs><style>.cls-1{fill:#4d4d4d;}</style></defs><title>choose existing</title><g id="Layer_2" data-name="Layer 2"><g id="annotations"><path class="cls-1" d="M78.43,26.16H72.29l3.24-11.34L62.23,11,57.47,0,44,5.81,31.59,2.25l-2.92,10.2L11.51,19.89l2.72,6.27H8.57A8.58,8.58,0,0,0,0,34.73V79.36a8.58,8.58,0,0,0,8.57,8.57H78.43A8.58,8.58,0,0,0,87,79.36V34.73A8.58,8.58,0,0,0,78.43,26.16Zm-22-23.45,3.28,7.57L47.16,6.71ZM33,4.81l8,2.3L44.18,8l16.55,4.73,2.57.73L73,16.23l-2.84,9.93H26.9L30.39,14l.73-2.57ZM14.23,21,27.94,15,24.76,26.16H16.48Zm70.71,58.4a6.51,6.51,0,0,1-6.5,6.5H8.57a6.51,6.51,0,0,1-6.5-6.5V34.73a6.51,6.51,0,0,1,6.5-6.5H78.43a6.51,6.51,0,0,1,6.5,6.5Z"/><path class="cls-1" d="M49.27,68.86a13.51,13.51,0,0,1-6.6,1.48c-6.08,0-11.24-4.45-11.24-11.57,0-7.64,5.3-14.24,13.54-14.24,6.45,0,10.79,4.52,10.79,10.72,0,5.56-3.12,8.83-6.6,8.83-1.48,0-2.86-1-2.74-3.26h-.15A5.83,5.83,0,0,1,41,64.07c-2.15,0-4-1.74-4-4.67a8.76,8.76,0,0,1,8.79-8.79,9.77,9.77,0,0,1,4,.78L48.52,58.1c-.56,2.82-.11,4.12,1.11,4.15,1.89,0,4-2.48,4-6.79,0-5.38-3.23-9.24-9-9.24-6,0-11.13,4.78-11.13,12.31,0,6.19,4,10,9.53,10a11.57,11.57,0,0,0,5.6-1.3Zm-2-16a6.43,6.43,0,0,0-1.85-.26c-3.26,0-5.9,3.08-5.9,6.68,0,1.63.82,2.82,2.45,2.82,2.15,0,4.12-2.74,4.52-5Z"/></g></g></svg>