<svg xmlns="http://www.w3.org/2000/svg" viewBox="0 0 30 23.75"><defs><style>.cls-1{fill:#d7e7f4;}.cls-2{fill:#a0a0a0;}</style></defs><title>folder</title><g id="Layer_2" data-name="Layer 2"><g id="annotations"><path class="cls-1" d="M2.34,1a1,1,0,0,0-.93,1V21.73a1,1,0,0,0,.93,1H27.29a1,1,0,0,0,.93-1V5.57a1,1,0,0,0-.93-1H14.45a1.31,1.31,0,0,1-1.26-1.36V2c0-.54-1.94-1-2.44-1Z"/><path class="cls-2" d="M26.75,23.75H3.25A3.26,3.26,0,0,1,0,20.49V3.25A3.26,3.26,0,0,1,3.25,0h7.92a3.25,3.25,0,0,1,3.25,3.11H26.75A3.25,3.25,0,0,1,30,6.36V20.49A3.25,3.25,0,0,1,26.75,23.75ZM3.25,2.38a.87.87,0,0,0-.87.87V20.49a.87.87,0,0,0,.87.87h23.5a.87.87,0,0,0,.87-.87V6.36a.87.87,0,0,0-.87-.87H13.23A1.19,1.19,0,0,1,12,4.3V3.25a.89.89,0,0,0-.87-.87Z"/></g></g></svg>