<svg xmlns="http://www.w3.org/2000/svg" viewBox="0 0 94.53 224.46"><defs><style>.cls-1{fill:#5593d7;}</style></defs><title>arrow</title><g id="Layer_2" data-name="Layer 2"><g id="annotations"><path class="cls-1" d="M58.63,30.54l-1-.28q.84-2.88,1.62-5.76L59.7,23l.54,1.5c.67,1.87,1.3,3.8,1.87,5.73l-1,.28c-.41-1.4-.86-2.79-1.33-4.16Q59.24,28.43,58.63,30.54Z"/><path class="cls-1" d="M8.89,224.46l-.48-.88a6.45,6.45,0,0,0,.55-.34c3-2.08,6-4.36,8.87-6.77l.64.77c-2.89,2.43-5.9,4.73-8.95,6.83A7.38,7.38,0,0,1,8.89,224.46ZM2.76,224A7.39,7.39,0,0,1,0,218.29,6.42,6.42,0,0,1,2.79,213l.58.81A5.44,5.44,0,0,0,1,218.29a6.46,6.46,0,0,0,2.37,4.95Zm20.19-10.75-.68-.73c2.84-2.64,5.63-5.49,8.3-8.47l.75.67C28.62,207.75,25.8,210.62,22.95,213.28Zm-14.76-3-.62-.79a103.81,103.81,0,0,0,8.88-7.84l.7.71A104.71,104.71,0,0,1,8.19,210.24Zm27-10-.77-.63c2.45-3,4.86-6.17,7.15-9.47l.82.57C40.09,194,37.66,197.19,35.2,200.2ZM21.29,198l-.74-.67c2.59-2.84,5.14-5.91,7.57-9.12l.8.6C26.47,192,23.9,195.14,21.29,198Zm24.43-12.3-.84-.54C47,181.92,49,178.49,51,175l.88.48C49.89,179,47.83,182.44,45.72,185.71ZM32.43,184l-.82-.57c.94-1.35,1.89-2.77,2.83-4.21,1.22-1.89,2.43-3.83,3.59-5.78l.86.51c-1.17,2-2.38,3.91-3.61,5.81C34.34,181.19,33.38,182.61,32.43,184Zm22.22-13.79-.89-.46c1.77-3.45,3.49-7.05,5.12-10.72l.91.41C58.16,163.1,56.43,166.72,54.65,170.19Zm-12.79-1.44-.87-.48c1.9-3.44,3.72-7,5.42-10.57l.9.43C45.6,161.72,43.77,165.29,41.86,168.75Zm20.28-14.82-.92-.38c.77-1.87,1.54-3.81,2.29-5.77.67-1.75,1.33-3.54,2-5.33l.94.33c-.64,1.79-1.3,3.59-2,5.35C63.7,150.1,62.92,152,62.15,153.93Zm-12.36-1.24-.92-.4c1.57-3.59,3.07-7.3,4.44-11l.94.35C52.86,145.36,51.36,149.08,49.78,152.69Zm18.57-15.55-1-.31c1.23-3.75,2.37-7.58,3.4-11.38l1,.26C70.73,129.53,69.58,133.37,68.35,137.14ZM56.23,136l-.95-.32c1.25-3.73,2.42-7.55,3.47-11.36l1,.27C58.66,128.41,57.49,132.25,56.23,136Zm17-16.06-1-.24c.93-3.84,1.78-7.75,2.5-11.62l1,.18C75,112.14,74.19,116.07,73.25,119.93Zm-12-1.13-1-.24c.94-3.84,1.78-7.75,2.5-11.62l1,.18C63,111,62.16,114.94,61.21,118.8Zm15.56-16.42-1-.16c.62-3.93,1.14-7.89,1.53-11.78l1,.1C77.92,94.45,77.4,98.43,76.77,102.38Zm-12-1.13-1-.16c.47-3,.88-6,1.21-9q.16-1.41.3-2.82l1,.1q-.14,1.42-.3,2.83C65.61,95.24,65.2,98.27,64.73,101.25ZM78.82,84.59l-1-.07c.28-4,.45-8,.48-11.87h1C79.27,76.59,79.11,80.6,78.82,84.59Zm-12-1.13-1-.07c.3-4,.47-8,.52-11.87h1C67.25,75.41,67.07,79.42,66.77,83.46ZM78.27,66.72c-.09-4-.31-8-.66-11.86l1-.09c.35,3.91.58,7.92.67,11.92Zm-12-1.13c-.09-4-.32-8-.69-11.85l1-.1c.38,3.84.61,7.85.7,11.92ZM77,49c-.5-4-1.15-8-1.92-11.71l1-.2c.78,3.77,1.43,7.74,1.94,11.79ZM64.88,47.85c-.56-4-1.3-7.91-2.19-11.65l1-.23c.9,3.77,1.65,7.72,2.21,11.75Z"/><path class="cls-1" d="M73.7,31.39c-.49-1.94-1-3.88-1.6-5.76l-.38-1.27,1.13.7c1.69,1,3.43,2.05,5.17,3l-.47.88c-1.38-.74-2.75-1.52-4.11-2.33.44,1.5.85,3,1.24,4.55Z"/><path class="cls-1" d="M45.86,46.41A5.7,5.7,0,0,1,42,41.08a6.71,6.71,0,0,1,.37-2.13q.46-1.38.91-2.75l1,.31q-.45,1.38-.92,2.76A5.73,5.73,0,0,0,43,41.08a4.73,4.73,0,0,0,3.23,4.39Zm5.91-.21-.46-.89a5.39,5.39,0,0,0,2.63-3.17c.71-2.12,1.41-4.26,2.06-6.37l1,.3c-.66,2.12-1.36,4.27-2.07,6.4A6.37,6.37,0,0,1,51.77,46.2ZM88.48,33.27a8.73,8.73,0,0,1-3.37-.72q-1.25-.53-2.46-1.09l.42-.91q1.2.55,2.43,1.08a7.74,7.74,0,0,0,3,.64,5.14,5.14,0,0,0,4.25-2.07l.8.6A6.16,6.16,0,0,1,88.48,33.27ZM45.94,31.09l-1-.29c1.1-3.59,2.14-7.25,3.1-10.87l1,.26C48.08,23.82,47,27.49,45.94,31.09Zm47.63-5.86a4.37,4.37,0,0,0-2.4-3c-2.13-.91-4.23-1.89-6.24-2.92l.46-.89c2,1,4.06,2,6.17,2.89a5.35,5.35,0,0,1,3,3.71ZM79.95,16.49a92.52,92.52,0,0,1-9.38-6.44l.61-.79a91.8,91.8,0,0,0,9.28,6.37Zm-29.5-1.81-1-.24c.74-3,1.44-6.08,2.09-9.11,0-.11,0-.19.06-.26l.07-.33a5.9,5.9,0,0,1,.48-1.39l.9.44a4.89,4.89,0,0,0-.4,1.16l-.12.55C51.9,8.59,51.19,11.67,50.45,14.69ZM66.17,6.45c-1.34-1.16-2.7-2.39-4.07-3.68A4.8,4.8,0,0,0,58.36,1a5.42,5.42,0,0,0-.71,0l-.43,0-.1-1,.45,0a5.82,5.82,0,0,1,.8-.05,5.73,5.73,0,0,1,4.47,2.08c1.32,1.24,2.67,2.47,4,3.61Z"/></g></g></svg>