<svg id="Layer_1" data-name="Layer 1" xmlns="http://www.w3.org/2000/svg" viewBox="0 0 362.665 137.719"><defs><style>.cls-1{fill:#5b91cc;}.cls-2{fill:#58595b;}</style></defs><title>safe_network_logo</title><g id="typography"><path class="cls-1" d="M98.806,82a7,7,0,1,0-3.975-12.759l-9.838-5.68c.015-.186.028-.372.028-.561s-.014-.375-.028-.561l9.838-5.68a7,7,0,1,0,0-11.518l-9.838-5.68c.015-.186.028-.372.028-.561A7.006,7.006,0,1,0,82,44.759l9.838,5.68c-.015.186-.028.372-.028.561s.014.375.028.561L82,57.241a6.985,6.985,0,0,0-7.949,0l-9.838-5.68c.015-.186.028-.372.028-.561a6.992,6.992,0,0,0-4-6.317V33.317a7,7,0,1,0-6,0V44.682a7,7,0,1,0,6.975,12.076l9.838,5.68c-.015.186-.028.372-.028.561s.014.375.028.561l-9.838,5.68a6.989,6.989,0,0,0-7.95,0l-9.838-5.68c.015-.186.028-.372.028-.561a6.992,6.992,0,0,0-4-6.317V45.317a7,7,0,1,0-6,0V56.682a7.106,7.106,0,0,0-.975.558l-9.838-5.68c.015-.186.028-.372.028-.561a7,7,0,1,0-10,6.317V68.681a7,7,0,1,0,6,0V57.317a7.106,7.106,0,0,0,.975-.558l9.838,5.68c-.015.186-.028.372-.028.561a6.992,6.992,0,0,0,4,6.317V80.682a6.992,6.992,0,0,0-4,6.317c0,.189.014.375.028.561l-9.838,5.68A7,7,0,1,0,22.668,99c0-.19-.014-.376-.028-.561l9.838-5.68a7,7,0,1,0,6.974-12.076V69.317a7.106,7.106,0,0,0,.975-.558l9.838,5.68c-.015.186-.028.372-.028.561a6.992,6.992,0,0,0,4,6.317V92.682a6.992,6.992,0,0,0-4,6.317c0,.19.014.376.028.561l-9.838,5.68A7,7,0,1,0,43.452,111c0-.19-.014-.376-.028-.561l9.838-5.68a6.952,6.952,0,0,0,.975.559v11.365a7,7,0,1,0,10,6.317c0-.19-.014-.376-.028-.561l9.838-5.68A7,7,0,1,0,71.022,111c0,.19.014.376.028.561l-9.838,5.68a6.952,6.952,0,0,0-.975-.559V105.317a6.994,6.994,0,0,0,4-6.317c0-.19-.014-.376-.028-.561l9.838-5.68a6.987,6.987,0,0,0,7.95,0l9.838,5.68c-.015.185-.029.371-.029.561a7.006,7.006,0,1,0,3.025-5.759l-9.838-5.68c.015-.186.028-.372.028-.561a7,7,0,0,0-14,0c0,.189.014.375.028.561l-9.838,5.68a6.952,6.952,0,0,0-.975-.559V81.317a6.994,6.994,0,0,0,4-6.317c0-.189-.014-.375-.028-.561l9.838-5.68a6.988,6.988,0,0,0,7.951,0l9.838,5.68c-.015.186-.028.372-.028.561A7,7,0,0,0,98.806,82Z" transform="translate(-8.667 -6.141)"/><rect class="cls-2" x="121.904" width="1.141" height="137.719"/><path class="cls-2" d="M170.176,66.082c3.8,0,6.852-.879,9.066-2.637a8.352,8.352,0,0,0,3.348-6.937,8.655,8.655,0,0,0-2.344-6.266,8.9,8.9,0,0,0-2.594-1.586,21.081,21.081,0,0,0-5.891-1.344,16.936,16.936,0,0,1-4.348-.828c-1.336-.465-1.922-1.219-1.922-2.262,0-2,1.465-2.883,4.934-2.883a5.025,5.025,0,0,1,4.934,2.754c.629,1.133,1.039,1.344,2.172.836l3.176-1.375c1.211-.508,1.465-1.09.918-2.254-1.965-4.184-5.227-6.149-11.2-6.149-7.566,0-11.914,3.8-11.914,9.363a8.288,8.288,0,0,0,2.59,6.352,8.811,8.811,0,0,0,2.844,1.508,18.572,18.572,0,0,0,2.969.793c.789.125,1.836.293,3.176.457,3.637.379,5.641,1.133,5.641,3.012,0,2.215-1.836,3.3-5.555,3.3q-4.078,0-5.391-2.883c-.547-1.293-1.008-1.461-2.215-1l-3.055,1.082c-1.168.465-1.461.965-1.086,2.176C160.1,63.824,164.032,66.082,170.176,66.082Zm37.883-2.176c.375,1.211,1.047,1.547,3.09,1.547h3.141c1.164,0,1.543-.543,1.125-1.672l-9.992-26.664c-.371-1.047-.875-1.336-2.09-1.336h-3.215c-1.215,0-1.715.289-2.09,1.422l-9.992,26.578c-.418,1.129-.039,1.672,1.129,1.672h2.887c2.047,0,2.59-.336,3.051-1.547l1.34-3.93h10.316Zm-9.82-9.445,2.172-6.52a17.278,17.278,0,0,0,.957-5.93h.422l.043.789a25.325,25.325,0,0,0,1,5.184l2.176,6.476h-6.77Zm30.48-.336h9.609c1.3,0,1.719-.375,1.719-1.668v-2.8c0-1.3-.418-1.715-1.719-1.715h-9.609V41.964h11.7c1.3,0,1.719-.375,1.719-1.672v-2.8c0-1.293-.422-1.711-1.719-1.711h-16.8c-1.3,0-1.715.418-1.715,1.711v26.25c0,1.293.418,1.711,1.715,1.711h3.387c1.3,0,1.711-.418,1.711-1.711Zm41.856,9.617v-2.8c0-1.215-.5-1.715-1.715-1.715H256.743V53.538h9.609c1.3,0,1.711-.414,1.711-1.707v-2.8c0-1.3-.41-1.672-1.711-1.672h-9.609v-5.4h11.7c1.293,0,1.715-.375,1.715-1.672v-2.8c0-1.293-.422-1.711-1.715-1.711h-16.8c-1.293,0-1.715.418-1.715,1.711V63.74c0,1.293.422,1.711,1.715,1.711H268.86C270.157,65.453,270.575,65.035,270.575,63.742Zm-83.66,14.324H185.9c-.457,0-.66.2-.66.613v22.91c0,1.27.051,2.945.2,5.027.1,2.086.156,3.453.156,4.117h-.1c-.355-.512-1.066-1.625-2.082-3.3q-1.6-2.514-2.594-3.965L163.29,78.422a.763.763,0,0,0-.711-.355h-1.012c-.461,0-.664.2-.664.66v34.75c0,.457.2.66.664.66h1.012c.41,0,.613-.2.613-.66V89.8c0-1.164-.055-2.742-.152-4.676s-.152-3.145-.152-3.7h.1a32.109,32.109,0,0,1,1.879,2.992,36.358,36.358,0,0,0,2.234,3.609l18.035,25.707a.809.809,0,0,0,.711.406h1.066c.406,0,.609-.2.609-.66V78.726C187.524,78.269,187.321,78.066,186.915,78.066Zm23.187,9.3c-7.109,0-10.977,3.961-10.977,10.617v6.859c0,6.246,3.609,10,10.672,10q7.7,0,10.82-5.789c.258-.406.2-.711-.2-.914l-.711-.406a.631.631,0,0,0-.914.254c-1.828,3.3-4.828,4.98-8.992,4.98-5.535,0-8.484-3-8.484-7.926v-3.457h18.594c.766,0,1.168-.355,1.168-1.121v-2.59C221.075,91.426,217.266,87.367,210.1,87.367Zm8.789,12.445H201.313V97.777c0-5.281,3.047-8.484,8.789-8.484s8.789,3.2,8.789,8.484Zm25.778-11.687H236.6V82.586c0-.355-.2-.559-.613-.559h-.965c-.406,0-.6.2-.6.559v5.539H228.92a.508.508,0,0,0-.559.559v.867a.509.509,0,0,0,.559.559h5.492v14.781c0,3.859.758,6.5,2.23,7.875,1.473,1.422,4.117,2.133,7.926,2.082a.535.535,0,0,0,.609-.605v-.867a.54.54,0,0,0-.609-.609c-3.1,0-5.23-.508-6.3-1.574-1.117-1.016-1.676-3.152-1.676-6.348V90.109h8.074c.41,0,.613-.2.613-.559v-.867C245.282,88.328,245.079,88.125,244.669,88.125Zm41.363,0h-.707c-.563,0-.922.2-1.02.559l-5.484,17.785c-.152.559-.355,1.418-.613,2.59-.3,1.164-.508,1.98-.656,2.387h-.105c-.152-.355-.355-1.168-.66-2.336s-.559-2.031-.762-2.695l-5.59-16.969c-.152-.453-.3-.559-.914-.559h-.508c-.656,0-.813.055-.965.613l-5.637,17.117c-.152.559-.41,1.375-.664,2.539a22.239,22.239,0,0,1-.66,2.289h-.1a20.489,20.489,0,0,1-.613-2.387,24.409,24.409,0,0,0-.609-2.387l-5.539-17.938c-.1-.406-.453-.609-1.012-.609h-.762c-.508,0-.664.156-.461.664l7.824,24.992a.8.8,0,0,0,.766.609h.762a.848.848,0,0,0,.809-.609l5.895-18.336c.2-.613.406-1.375.664-2.34.25-.914.355-1.422.4-1.523h.156c.047.2.2.758.453,1.625.2.914.406,1.676.559,2.238l6,18.336a.851.851,0,0,0,.813.609h.762a.816.816,0,0,0,.816-.609l7.82-24.992C286.641,88.328,286.594,88.125,286.032,88.125Zm20.09-.758c-6.652,0-10.871,3.453-10.871,8.938v9.656c0,5.484,4.219,8.887,10.871,8.887,6.707,0,10.926-3.4,10.926-8.887V96.3C317.048,90.769,312.829,87.367,306.122,87.367Zm8.742,18.594c0,4.262-3.453,6.906-8.742,6.906-5.23,0-8.688-2.691-8.688-6.906V96.254c0-4.215,3.457-6.906,8.688-6.906,5.289,0,8.742,2.637,8.742,6.906Zm26.031-18.594h-1.574a24.383,24.383,0,0,0-9.043,1.625c-1.578.656-1.934,1.219-1.934,2.789v21.75a.537.537,0,0,0,.609.605h1.016c.355,0,.559-.2.559-.605V92.394a1.763,1.763,0,0,1,1.066-1.68,21.241,21.241,0,0,1,7.676-1.32h1.625c.355,0,.559-.2.559-.605v-.816C341.454,87.566,341.251,87.367,340.895,87.367Zm30.34,26.109-4.676-9.3a6.747,6.747,0,0,0-4.777-4.066l9.043-11.324c.355-.461.254-.664-.406-.664h-.863a1.327,1.327,0,0,0-1.168.461l-8.84,11.172h-6.656V77.152a.538.538,0,0,0-.609-.609h-.965a.538.538,0,0,0-.609.609v36.379a.537.537,0,0,0,.609.605h.965a.537.537,0,0,0,.609-.605V101.738h6.4a5.271,5.271,0,0,1,5.387,3.355l4.219,8.535a.944.944,0,0,0,.965.508h1.016C371.333,114.137,371.434,113.934,371.235,113.476Z" transform="translate(-8.667 -6.141)"/></g></svg>