<svg id="Layer_1" data-name="Layer 1" xmlns="http://www.w3.org/2000/svg" viewBox="0 0 97.14 110"><defs><style>.cls-1{fill:#5b91cc;}</style></defs><title>safe_network_mark</title><path class="cls-1" d="M101.572,72A7,7,0,1,0,97.6,59.241l-9.838-5.68c.015-.186.028-.372.028-.561s-.014-.375-.028-.561l9.838-5.68a7,7,0,1,0,0-11.518l-9.838-5.68c.015-.186.028-.372.028-.561a7.006,7.006,0,1,0-3.025,5.759l9.838,5.68c-.015.186-.028.372-.028.561s.014.375.028.561l-9.838,5.68a6.985,6.985,0,0,0-7.949,0l-9.838-5.68c.015-.186.028-.372.028-.561a6.992,6.992,0,0,0-4-6.317V23.317a7,7,0,1,0-6,0V34.682a7,7,0,1,0,6.975,12.076l9.838,5.68c-.015.186-.028.372-.028.561s.014.375.028.561l-9.838,5.68a6.989,6.989,0,0,0-7.95,0l-9.838-5.68c.015-.186.028-.372.028-.561a6.992,6.992,0,0,0-4-6.317V35.317a7,7,0,1,0-6,0V46.682a7.106,7.106,0,0,0-.975.558L25.4,41.56c.015-.186.028-.372.028-.561a7,7,0,1,0-10,6.317V58.681a7,7,0,1,0,6,0V47.317a7.106,7.106,0,0,0,.975-.558l9.838,5.68c-.015.186-.028.372-.028.561a6.992,6.992,0,0,0,4,6.317V70.682a6.992,6.992,0,0,0-4,6.317c0,.189.014.375.028.561l-9.838,5.68A7,7,0,1,0,25.434,89c0-.19-.014-.376-.028-.561l9.838-5.68a7,7,0,1,0,6.974-12.076V59.317a7.106,7.106,0,0,0,.975-.558l9.838,5.68c-.015.186-.028.372-.028.561a6.992,6.992,0,0,0,4,6.317V82.682A6.992,6.992,0,0,0,53,89c0,.19.014.376.028.561l-9.838,5.68A7,7,0,1,0,46.218,101c0-.19-.014-.376-.028-.561l9.838-5.68a6.952,6.952,0,0,0,.975.559v11.365A7,7,0,1,0,67,113c0-.19-.014-.376-.028-.561l9.838-5.68A7,7,0,1,0,73.788,101c0,.19.014.376.028.561l-9.838,5.68a6.952,6.952,0,0,0-.975-.559V95.317A6.994,6.994,0,0,0,67,89c0-.19-.014-.376-.028-.561l9.838-5.68a6.987,6.987,0,0,0,7.95,0l9.838,5.68c-.015.186-.028.372-.028.561A7.006,7.006,0,1,0,97.6,83.241l-9.838-5.68c.015-.186.028-.372.028-.561a7,7,0,0,0-14,0c0,.189.014.375.028.561l-9.838,5.68A6.952,6.952,0,0,0,63,82.682V71.317A6.994,6.994,0,0,0,67,65c0-.189-.014-.375-.028-.561l9.838-5.68a6.987,6.987,0,0,0,7.95,0l9.838,5.68c-.015.186-.028.372-.028.561A7,7,0,0,0,101.572,72Z" transform="translate(-11.433 -10)"/></svg>